<?xml version="1.0" encoding="utf-8"?>
<!-- Generated by IcoMoon.io -->
<!DOCTYPE svg PUBLIC "-//W3C//DTD SVG 1.1//EN" "http://www.w3.org/Graphics/SVG/1.1/DTD/svg11.dtd">
<svg version="1.1" xmlns="http://www.w3.org/2000/svg" xmlns:xlink="http://www.w3.org/1999/xlink" width="32" height="32" viewBox="0 0 32 32">
	<path d="M8.564 26.904c-2.849-2.9-6.667-6.693-8.221-8.287-0.365-0.33-0.363-1.056-0.226-1.406 0.113-0.291 3.49-3.631 3.794-3.786 0.284-0.145 0.791-0.238 1.285 0.061 0.144 0.087 3.649 3.613 5.523 5.477 0.801 0.492 1.231 0.163 1.567-0.083 7.012-7.021 14.171-14.201 14.432-14.404 0.258-0.201 0.723-0.417 1.423-0.147 0.423 0.367 2.385 2.308 3.595 3.54 0.309 0.279 0.317 1.122-0.025 1.547-0.997 1.050-14.849 14.905-17.553 17.575-1.49 1.134-4.159 1.040-5.594-0.088z"></path>
</svg>
