<?xml version="1.0" encoding="utf-8"?>
<!-- Generated by IcoMoon.io -->
<!DOCTYPE svg PUBLIC "-//W3C//DTD SVG 1.1//EN" "http://www.w3.org/Graphics/SVG/1.1/DTD/svg11.dtd">
<svg version="1.1" xmlns="http://www.w3.org/2000/svg" xmlns:xlink="http://www.w3.org/1999/xlink" width="32" height="32" viewBox="0 0 32 32">
	<path d="M14.249 31.774c-8.896-1.053-14.882-8.772-14.159-17.366 1.010-8.269 7.317-14.017 14.943-14.403 11.109-0.247 16.357 8.295 16.851 14.403 0.946 13.275-11.142 18.55-17.634 17.366v0zM10.639 24.536c1.521-1.417 2.569-2.672 4.572-4.502 0.257-0.289 1.287-0.31 1.688 0.051 1.467 1.391 2.512 2.55 4.419 4.388 0.488 0.398 1.328 0.387 1.68 0.137 0.357-0.252 1.684-1.613 1.839-1.878 0.184-0.316 0.213-0.881-0.161-1.491-1.164-1.174-2.757-2.75-4.487-4.516-0.455-0.61-0.277-1.352 0.066-1.758 1.987-2.001 3.816-3.757 4.498-4.541 0.25-0.533 0.204-1.080 0.051-1.417-0.158-0.347-1.547-1.724-1.904-1.887-0.311-0.142-0.891-0.255-1.444 0.104-1.682 1.616-2.642 2.596-4.479 4.42-0.702 0.537-1.371 0.424-1.949-0.010-1.706-1.703-2.039-2.077-4.375-4.348-0.278-0.293-1.155-0.358-1.448-0.223-0.33 0.152-1.838 1.647-1.982 1.965-0.064 0.141-0.272 0.559 0.006 1.294 2.058 2.211 3.097 3.104 4.558 4.656 0.399 0.432 0.407 1.474 0.010 1.812-1.495 1.555-3.212 3.17-4.475 4.491-0.22 0.481-0.443 0.997-0.059 1.568 0.353 0.526 1.59 1.653 1.707 1.725 0.55 0.329 0.876 0.336 1.668-0.038l-0.001-0.002z"></path>
</svg>
