<?xml version="1.0" encoding="utf-8"?>
<!-- Generated by IcoMoon.io -->
<!DOCTYPE svg PUBLIC "-//W3C//DTD SVG 1.1//EN" "http://www.w3.org/Graphics/SVG/1.1/DTD/svg11.dtd">
<svg version="1.1" xmlns="http://www.w3.org/2000/svg" xmlns:xlink="http://www.w3.org/1999/xlink" width="32" height="32" viewBox="0 0 32 32">
	<path d="M18.45 4.966c0.050-0 0.101-0 0.151 0 5.029 0.049 9.876 4.176 9.513 10.076 6.015 2.617 4.753 11.47-2.14 11.992-0.725-0.004-4.638-0.003-8.951-0.003 1.86-2.15 3.685-4.346 5.496-6.537 0.225-0.235 0.267-0.622-0.002-0.841 0.022-0.224-3.231-0.079-4.524-0.162-0.010-1.981-0.020-3.961-0.031-5.942-1.885-0.003-3.315 0-3.899-0.008v5.98c-1.456 0.026-2.922-0.058-4.372 0.067-0.336 0.131-0.393 0.559-0.169 0.817 1.914 2.241 3.827 4.526 5.573 6.625-3.808 0-7.645-0-9.629-0.002-4.581-0.52-8.351-7.389-2.281-11.975-1.061-3.61 3.1-7.332 6.846-4.546 2.016-3.867 5.243-5.521 8.418-5.542z"></path>
</svg>
