<?xml version="1.0" encoding="utf-8"?>
<!-- Generated by IcoMoon.io -->
<!DOCTYPE svg PUBLIC "-//W3C//DTD SVG 1.1//EN" "http://www.w3.org/Graphics/SVG/1.1/DTD/svg11.dtd">
<svg version="1.1" xmlns="http://www.w3.org/2000/svg" xmlns:xlink="http://www.w3.org/1999/xlink" width="32" height="32" viewBox="0 0 32 32">
	<path d="M18.609 4.973c-3.221-0.031-6.517 1.613-8.564 5.539-3.744-2.784-7.902 0.936-6.842 4.543-6.066 4.583-2.359 11.383 2.219 11.902 2.833 0.014 5.666 0.027 8.499 0.042v-5.976c-1.455-0.026-2.92 0.058-4.369-0.067-0.335-0.131-0.393-0.559-0.169-0.817 2.029-2.376 4.064-4.809 5.893-7.009 0.459-0.321 1.19-0.238 1.493 0.26 1.897 2.189 3.757 4.428 5.603 6.661 0.225 0.235 0.267 0.622-0.002 0.84 0.022 0.224-3.229 0.079-4.521 0.162-0.010 1.98-0.020 3.958-0.031 5.938 2.72 0.005 5.441 0.039 8.159 0.037 6.889-0.522 8.15-9.37 2.139-11.985 0.363-5.896-4.482-10.021-9.507-10.070z"></path>
</svg>
