<?xml version="1.0" encoding="utf-8"?>
<!-- Generated by IcoMoon.io -->
<!DOCTYPE svg PUBLIC "-//W3C//DTD SVG 1.1//EN" "http://www.w3.org/Graphics/SVG/1.1/DTD/svg11.dtd">
<svg version="1.1" xmlns="http://www.w3.org/2000/svg" xmlns:xlink="http://www.w3.org/1999/xlink" width="24" height="32" viewBox="0 0 24 32">
	<path d="M16.435 25.248c-0.012-1.177 0.135-2.885-0.069-3.863-0.342-1.439-1.334-2.482-2.323-3.648 1.095-1.052 2.227-2.099 3.111-2.925 1.473 1.568 2.612 3.182 3.181 4.842 0.534 1.359 0.388 3.027 0.424 5.593 1.139 0.003 2.246 0.013 3.362 0.034-1.942 2.3-3.655 4.342-5.626 6.654-1.643-2.010-2.878-3.345-5.623-6.691 1.254-0.008 2.212 0.004 3.563 0.004zM3.486 25.248c0.016-2.247-0.11-4.773 0.742-6.397 0.876-1.942 2.336-3.673 5.93-7.038 3.775-3.533 5.104-4.999 5.809-6.407 0.659-0.656 0.469-2.881 0.469-5.406h4.312c-0.040 1.963 0.13 4.391-0.379 6.006-1.027 3.098-3.978 5.835-6.433 8.139-3.661 3.423-5.008 4.916-5.722 6.344-0.61 1.939-0.402 2.589-0.402 4.759 1.117 0.023 2.286 0 3.393 0.039-1.646 2.053-3.941 4.651-5.575 6.648-1.873-2.233-3.603-4.285-5.63-6.648 1.234-0.021 2.164-0.039 3.486-0.039z"></path>
</svg>
