<?xml version="1.0" encoding="utf-8"?>
<!-- Generated by IcoMoon.io -->
<!DOCTYPE svg PUBLIC "-//W3C//DTD SVG 1.1//EN" "http://www.w3.org/Graphics/SVG/1.1/DTD/svg11.dtd">
<svg version="1.1" xmlns="http://www.w3.org/2000/svg" xmlns:xlink="http://www.w3.org/1999/xlink" width="32" height="32" viewBox="0 0 32 32">
	<path d="M26.537 4.872c0.247-0.796 0.576-2.564-0.329-4.828 0 0-1.597-0.507-5.209 1.91-1.415-0.353-2.921-0.528-4.429-0.528-1.659 0-3.336 0.211-4.9 0.64-3.727-2.543-5.372-2.022-5.372-2.022-1.074 2.686-0.41 4.674-0.208 5.168-1.262 1.362-2.033 3.101-2.033 5.234 0 1.61 0.183 3.054 0.631 4.309l0.471 1.066c1.258 2.345 3.739 3.86 8.152 4.336-0.626 0.421-1.265 1.136-1.524 2.347-0.854 0.408-3.556 1.405-5.177-1.384 0 0-0.908-1.659-2.644-1.789 0 0-1.685-0.026-0.116 1.050 0 0 1.128 0.531 1.905 2.528 0 0 1.015 3.406 5.912 2.313v3.518c0 0-0.103 1.244-1.244 1.659 0 0-0.674 0.467 0.052 0.726 0 0 3.162 0.259 3.162-2.332v-3.836c0 0-0.125-1.521 0.622-2.050v6.3c0 0-0.052 1.503-0.829 2.073 0 0-0.519 0.933 0.622 0.674 0 0 2.177-0.311 2.281-2.851l0.049-6.376h0.523l0.050 6.376c0.104 2.54 2.281 2.851 2.281 2.851 1.14 0.259 0.622-0.674 0.622-0.674-0.778-0.57-0.829-2.073-0.829-2.073l0-6.246c0.747 0.582 0.622 1.996 0.622 1.996v3.836c0 2.592 3.162 2.332 3.162 2.332 0.725-0.259 0.052-0.725 0.052-0.725-1.141-0.415-1.244-1.659-1.244-1.659v-5.028c0-1.961-0.826-2.999-1.633-3.547 4.707-0.467 6.965-1.986 8.006-4.348l0.372-1.054c0.349-1.257 0.454-2.704 0.454-4.318 0-2.314-0.869-4.165-2.281-5.574zM16.533 19.29c-5.131 0-9.289-0.772-9.289-5.73 0-1.187 0.585-2.289 1.586-3.204 1.67-1.524 4.497-0.717 7.703-0.717 3.192-0.001 6.009-0.816 7.682 0.698l0.001 0.001c1.014 0.918 1.607 2.028 1.607 3.222 0 5.579-4.159 5.73-9.289 5.73zM11.511 11.062c-1.067 0-1.933 1.245-1.933 2.782s0.865 2.782 1.933 2.782 1.933-1.246 1.933-2.783c0-1.536-0.865-2.78-1.933-2.782zM21.881 11.062c-1.067 0-1.933 1.245-1.933 2.782s0.865 2.782 1.933 2.782c1.067 0 1.933-1.246 1.933-2.783s-0.865-2.78-1.933-2.782z"></path>
</svg>
