<?xml version="1.0" encoding="utf-8"?>
<!-- Generated by IcoMoon.io -->
<!DOCTYPE svg PUBLIC "-//W3C//DTD SVG 1.1//EN" "http://www.w3.org/Graphics/SVG/1.1/DTD/svg11.dtd">
<svg version="1.1" xmlns="http://www.w3.org/2000/svg" xmlns:xlink="http://www.w3.org/1999/xlink" width="26" height="32" viewBox="0 0 26 32">
	<path d="M0 9.344c0-1.813 0.646-3.365 1.938-4.656s2.854-1.938 4.688-1.938c1.406 0 2.669 0.393 3.789 1.18s1.925 1.81 2.414 3.070c0.469-1.26 1.268-2.284 2.398-3.070s2.393-1.18 3.789-1.18c1.833 0 3.393 0.646 4.68 1.938s1.93 2.844 1.93 4.656c0 0.167-0.026 0.422-0.078 0.766s-0.307 1.057-0.766 2.141-1.086 2.213-1.883 3.391-2.075 2.667-3.836 4.469-3.828 3.609-6.203 5.422l-0.031-0.031v0.031h-0.063c-2.365-1.813-4.427-3.62-6.188-5.422s-3.042-3.292-3.844-4.469-1.432-2.307-1.891-3.391-0.714-1.797-0.766-2.141-0.078-0.599-0.078-0.766z"></path>
</svg>
