<?xml version="1.0" encoding="utf-8"?>
<!-- Generated by IcoMoon.io -->
<!DOCTYPE svg PUBLIC "-//W3C//DTD SVG 1.1//EN" "http://www.w3.org/Graphics/SVG/1.1/DTD/svg11.dtd">
<svg version="1.1" xmlns="http://www.w3.org/2000/svg" xmlns:xlink="http://www.w3.org/1999/xlink" width="29" height="32" viewBox="0 0 29 32">
	<path d="M12.234 18.058c-0.143-0.552-0.146-15.686-0.003-16.235 0.711-2.554 3.886-2.26 4.562-0.137v16.432c-0.811 2.382-3.913 2.269-4.558-0.060h-0.001zM14.466 31.936c-13.862-0.249-19.184-16.735-9.626-25.291 2.756-2.052 5.498 1.638 2.963 3.722-6.755 6.849-1.505 16.858 6.617 16.841 10.087-0.476 12.337-11.764 6.793-16.754-2.562-1.906-0.017-5.863 2.836-3.834 10.416 9.925 2.818 25.382-9.583 25.317v-0.001z"></path>
</svg>
