<?xml version="1.0" encoding="utf-8"?>
<!-- Generated by IcoMoon.io -->
<!DOCTYPE svg PUBLIC "-//W3C//DTD SVG 1.1//EN" "http://www.w3.org/Graphics/SVG/1.1/DTD/svg11.dtd">
<svg version="1.1" xmlns="http://www.w3.org/2000/svg" xmlns:xlink="http://www.w3.org/1999/xlink" width="27" height="32" viewBox="0 0 27 32">
	<path d="M3.33 27.508c-1.936-2.166-3.381-5.351-3.329-8.701 0.067-4.314 1.653-6.897 3.793-9.246 3.525-3.4 6.866-3.892 10.234-3.91 0.050-1.883 0.047-3.767 0.047-5.651 3.257 3.307 5.323 5.308 8.602 8.662-0.017 0.049-8.55 8.603-8.582 8.603-0.029-2.107-0.019-3.714-0.019-5.984-5.589-0.421-8.606 4.006-8.492 7.455 0.12 5.749 4.897 7.577 7.576 7.648 5.732-0.6 7.845-4.94 7.555-8.682h5.538c0.299 7.209-4.28 10.736-4.509 10.985-3.684 3.018-7.428 3.491-9.979 3.155-2.015-0.096-5.743-1.321-8.435-4.334z"></path>
</svg>
