<?xml version="1.0"?><svg xmlns="http://www.w3.org/2000/svg" viewBox="0 0 1152 422"><title>SassMeister Sticker</title><g><path d="M484.55 355.52h.85c0-2.45-.7-4.23-2.13-5.34-1.43-1.1-3.37-1.67-5.82-1.67-1.37 0-2.52.18-3.46.53-.95.34-1.72.78-2.32 1.32-.6.54-1.03 1.14-1.28 1.8-.26.65-.4 1.28-.4 1.88 0 1.2.23 2.15.65 2.86.43.7 1.1 1.26 2 1.66.64.28 1.35.54 2.15.77.8.23 1.73.47 2.78.73l2.78.68c.9.23 1.72.53 2.4.92.7.38 1.28.88 1.72 1.47.45.6.67 1.4.67 2.36 0 .93-.22 1.72-.67 2.38-.44.65-1 1.2-1.68 1.6-.7.42-1.45.7-2.3.9-.83.2-1.65.28-2.45.28-2.6 0-4.58-.58-5.96-1.73-1.4-1.16-2.1-2.97-2.1-5.45h-.84c0 2.76.75 4.78 2.24 6.07 1.5 1.28 3.7 1.92 6.65 1.92.94 0 1.9-.1 2.84-.32.95-.2 1.8-.56 2.56-1.05.75-.48 1.37-1.1 1.84-1.88.47-.77.7-1.7.7-2.82 0-1.05-.2-1.9-.62-2.57-.4-.65-.95-1.2-1.62-1.62-.67-.42-1.43-.75-2.27-1l-2.55-.7-3.14-.8c-.9-.24-1.73-.5-2.5-.82-.74-.32-1.33-.77-1.77-1.35-.44-.6-.66-1.42-.66-2.5 0-.2.06-.56.17-1.07.1-.5.38-1.03.8-1.56.44-.53 1.1-1 1.98-1.4.88-.42 2.1-.63 3.63-.63 1.06 0 2.02.1 2.9.34.86.24 1.6.6 2.23 1.1.63.5 1.1 1.13 1.46 1.9.34.77.5 1.7.5 2.82zm6.43.3h.85c.14-2.05.86-3.64 2.14-4.76 1.28-1.13 3.08-1.7 5.4-1.7 1.44 0 2.6.2 3.45.6.85.37 1.5.86 1.94 1.46.45.6.72 1.25.84 1.97.1.7.17 1.38.17 2.04 0 .83-.17 1.46-.5 1.9-.32.44-.83.77-1.53.98-.7.22-1.6.36-2.67.43l-3.9.24c-.9.04-1.82.17-2.73.35-.9.2-1.72.5-2.44.98-.7.47-1.3 1.12-1.73 1.95-.44.83-.66 1.92-.66 3.3 0 1.96.68 3.43 2.02 4.42 1.34.98 3.12 1.47 5.34 1.47 1.14 0 2.2-.15 3.17-.45.96-.3 1.83-.7 2.58-1.22.77-.5 1.4-1.1 1.9-1.75.5-.66.86-1.34 1.08-2.05h.1v2.86c0 .83.22 1.4.7 1.7.46.3 1 .44 1.64.44h1.28v-.86l-.92.07c-.32.02-.63 0-.92-.08-.28-.07-.5-.2-.68-.4-.17-.2-.26-.52-.26-.94V354.8c-.02-1.2-.24-2.2-.64-3-.4-.8-.92-1.44-1.58-1.94-.65-.5-1.42-.85-2.3-1.05-.86-.2-1.77-.3-2.74-.3-1.37 0-2.56.2-3.57.57-1.03.37-1.88.88-2.58 1.54-.7.66-1.23 1.44-1.6 2.34-.37.9-.6 1.86-.64 2.88zm14.8 2.27v4.05c0 1.08-.2 2.14-.6 3.16-.37 1.04-.94 1.95-1.7 2.73-.75.78-1.7 1.42-2.8 1.9-1.1.5-2.38.73-3.8.73-1.2 0-2.2-.15-3.02-.45-.8-.3-1.47-.67-1.98-1.15-.52-.47-.88-1-1.1-1.62-.2-.6-.32-1.23-.32-1.86 0-1.17.2-2.12.56-2.84.37-.73.87-1.3 1.5-1.7.62-.43 1.34-.7 2.16-.87.8-.15 1.64-.26 2.5-.32.85-.05 1.73-.1 2.63-.13.9 0 1.74-.1 2.5-.2.78-.1 1.46-.28 2.06-.5.6-.2 1.04-.5 1.32-.9h.1zm21.12-2.58h.86c0-2.45-.7-4.23-2.14-5.34-1.42-1.1-3.36-1.67-5.8-1.67-1.38 0-2.53.18-3.48.53-.94.34-1.7.78-2.3 1.32-.6.54-1.03 1.14-1.3 1.8-.24.65-.37 1.28-.37 1.88 0 1.2.2 2.15.64 2.86.44.7 1.1 1.26 2.02 1.66.63.28 1.34.54 2.14.77.8.23 1.72.47 2.78.73.94.22 1.86.45 2.77.68.93.23 1.73.53 2.43.92.7.38 1.27.88 1.7 1.47.45.6.67 1.4.67 2.36 0 .93-.22 1.72-.66 2.38-.44.65-1 1.2-1.7 1.6-.67.42-1.44.7-2.28.9-.84.2-1.66.28-2.45.28-2.6 0-4.58-.58-5.96-1.73-1.38-1.16-2.07-2.97-2.07-5.45h-.86c0 2.76.76 4.78 2.26 6.07 1.5 1.28 3.7 1.92 6.65 1.92.95 0 1.9-.1 2.85-.32.95-.2 1.8-.56 2.56-1.05.77-.48 1.38-1.1 1.85-1.88.47-.77.7-1.7.7-2.82 0-1.05-.2-1.9-.6-2.57-.43-.65-.97-1.2-1.64-1.62-.66-.42-1.4-.75-2.25-1l-2.55-.7-3.14-.8c-.9-.24-1.73-.5-2.5-.82-.74-.32-1.33-.77-1.77-1.35-.46-.6-.68-1.42-.68-2.5 0-.2.06-.56.18-1.07.1-.5.38-1.03.8-1.56.43-.53 1.1-1 1.97-1.4.9-.42 2.1-.63 3.64-.63 1.06 0 2.02.1 2.9.34.86.24 1.6.6 2.24 1.1.62.5 1.1 1.13 1.45 1.9.33.77.5 1.7.5 2.82zm20.8 0h.85c0-2.45-.7-4.23-2.14-5.34-1.4-1.1-3.35-1.67-5.8-1.67-1.37 0-2.52.18-3.46.53-.94.34-1.7.78-2.3 1.32-.6.54-1.04 1.14-1.3 1.8-.25.65-.38 1.28-.38 1.88 0 1.2.22 2.15.64 2.86.43.7 1.1 1.26 2 1.66.64.28 1.35.54 2.15.77.8.23 1.72.47 2.78.73l2.78.68c.92.23 1.72.53 2.42.92.7.38 1.27.88 1.7 1.47.45.6.68 1.4.68 2.36 0 .93-.23 1.72-.67 2.38-.44.65-1 1.2-1.7 1.6-.67.42-1.43.7-2.27.9-.84.2-1.66.28-2.46.28-2.6 0-4.58-.58-5.96-1.73-1.4-1.16-2.08-2.97-2.08-5.45h-.85c0 2.76.76 4.78 2.25 6.07 1.5 1.28 3.7 1.92 6.65 1.92.94 0 1.9-.1 2.84-.32.96-.2 1.8-.56 2.57-1.05.76-.48 1.38-1.1 1.85-1.88.47-.77.7-1.7.7-2.82 0-1.05-.2-1.9-.62-2.57-.4-.65-.95-1.2-1.62-1.62-.66-.42-1.42-.75-2.26-1l-2.54-.7-3.15-.8c-.9-.24-1.73-.5-2.5-.82-.74-.32-1.33-.77-1.77-1.35-.44-.6-.66-1.42-.66-2.5 0-.2.05-.56.17-1.07.1-.5.37-1.03.8-1.56.43-.53 1.08-1 1.97-1.4.88-.42 2.1-.63 3.63-.63 1.06 0 2.02.1 2.9.34.86.24 1.6.6 2.23 1.1.63.5 1.1 1.13 1.45 1.9.35.77.52 1.7.52 2.82zm6.47-6.5V371h.85v-12.44c0-1.23.17-2.4.5-3.5.32-1.12.8-2.1 1.4-2.93.62-.84 1.37-1.5 2.25-2 .88-.5 1.87-.76 2.95-.76 1.23 0 2.22.2 3 .6.76.4 1.36.94 1.8 1.62.42.68.7 1.47.87 2.4.14.9.22 1.87.22 2.9V371h.86v-13.94c0-1.02.15-2 .47-2.92.3-.93.77-1.75 1.36-2.46.6-.72 1.34-1.28 2.2-1.7.85-.4 1.8-.6 2.86-.6 1.2 0 2.2.16 2.97.5.78.34 1.4.83 1.88 1.45.48.63.8 1.4 1 2.27.18.88.27 1.87.27 2.95V371h.86v-14.45c0-1.2-.12-2.3-.35-3.27-.22-.98-.6-1.82-1.15-2.52-.54-.7-1.25-1.25-2.14-1.65-.9-.4-2-.6-3.34-.6-1.7 0-3.2.48-4.45 1.42-1.24.94-2.08 2.18-2.5 3.72h-.1c-.37-1.62-1.13-2.9-2.28-3.82-1.16-.93-2.6-1.36-4.3-1.3-.85 0-1.66.14-2.4.44-.77.3-1.46.72-2.1 1.26-.6.55-1.14 1.17-1.57 1.88-.43.72-.74 1.5-.94 2.36h-.08v-5.43h-.85zM588 360.2h18.38c.06-1.5-.1-2.96-.45-4.36-.35-1.4-.92-2.63-1.7-3.72-.8-1.08-1.8-1.95-3.04-2.6-1.25-.66-2.72-1-4.43-1-1.23 0-2.43.27-3.6.78-1.16.52-2.2 1.26-3.07 2.25-.9.98-1.6 2.18-2.14 3.6-.54 1.43-.8 3.06-.8 4.88 0 1.64.17 3.16.54 4.57.37 1.4.94 2.63 1.7 3.67.78 1.04 1.77 1.85 2.98 2.42 1.2.57 2.68.84 4.4.8 2.5 0 4.6-.7 6.3-2.1 1.72-1.42 2.73-3.4 3.05-5.97h-.86c-.37 2.4-1.32 4.23-2.84 5.44-1.53 1.2-3.44 1.82-5.75 1.82-1.57 0-2.9-.27-3.98-.8-1.08-.56-1.96-1.3-2.65-2.24-.68-.94-1.2-2.04-1.5-3.3-.34-1.28-.52-2.65-.55-4.14zm17.53-.85H588c.1-1.54.37-2.92.86-4.15.48-1.22 1.1-2.27 1.9-3.14.78-.87 1.7-1.53 2.73-2 1.03-.44 2.15-.67 3.35-.67 1.43 0 2.68.26 3.76.8 1.1.52 2 1.24 2.73 2.15.72.9 1.27 1.97 1.64 3.18.37 1.2.56 2.5.56 3.83zm6.13-14.54v-4.32h-.86v4.3h.86zm0 26.2v-21.97h-.86V371h.86zm20.02-15.48h.86c0-2.45-.7-4.23-2.14-5.34-1.42-1.1-3.36-1.67-5.8-1.67-1.38 0-2.54.18-3.48.53-.94.34-1.7.78-2.3 1.32-.6.54-1.03 1.14-1.3 1.8-.24.65-.37 1.28-.37 1.88 0 1.2.2 2.15.64 2.86.42.7 1.1 1.26 2 1.66.63.28 1.34.54 2.14.77.8.23 1.72.47 2.77.73.95.22 1.88.45 2.8.68.9.23 1.7.53 2.4.92.7.38 1.28.88 1.72 1.47.44.6.66 1.4.66 2.36 0 .93-.22 1.72-.66 2.38-.44.65-1 1.2-1.7 1.6-.67.42-1.44.7-2.28.9-.84.2-1.66.28-2.46.28-2.6 0-4.58-.58-5.96-1.73-1.38-1.16-2.07-2.97-2.07-5.45h-.86c0 2.76.74 4.78 2.24 6.07 1.5 1.28 3.7 1.92 6.64 1.92.95 0 1.9-.1 2.85-.32.95-.2 1.8-.56 2.56-1.05.75-.48 1.36-1.1 1.83-1.88.47-.77.7-1.7.7-2.82 0-1.05-.2-1.9-.6-2.57-.43-.65-.97-1.2-1.64-1.62-.68-.42-1.43-.75-2.27-1l-2.55-.7-3.14-.8c-.9-.24-1.73-.5-2.5-.82-.74-.32-1.33-.77-1.77-1.35-.45-.6-.67-1.42-.67-2.5 0-.2.06-.56.17-1.07.12-.5.4-1.03.82-1.56.4-.53 1.07-1 1.95-1.4.9-.42 2.1-.63 3.64-.63 1.04 0 2 .1 2.87.34.87.24 1.62.6 2.25 1.1.62.5 1.1 1.13 1.45 1.9.34.77.5 1.7.5 2.82zm8.83-5.64h4.96v-.85h-4.95v-6.93h-.85v6.93h-4.02v.85h4.02v17.02c0 1.56.35 2.64 1.05 3.22.7.6 1.54.88 2.54.88.66 0 1.1 0 1.35-.04l.74-.1v-.84c-.15.05-.4.1-.73.1-.33.02-.72.02-1.14.02-.35 0-.7-.02-1.03-.06-.34-.04-.66-.18-.94-.4-.3-.23-.53-.58-.72-1.03-.18-.46-.27-1.1-.27-1.92v-16.85zm8.53 10.3h18.38c.07-1.5-.08-2.96-.44-4.36-.35-1.4-.92-2.63-1.7-3.72-.8-1.08-1.8-1.95-3.04-2.6-1.24-.66-2.72-1-4.43-1-1.23 0-2.43.27-3.6.78-1.17.52-2.2 1.26-3.08 2.25-.88.98-1.6 2.18-2.13 3.6-.55 1.43-.83 3.06-.83 4.88 0 1.64.2 3.16.56 4.57.37 1.4.94 2.63 1.7 3.67.78 1.04 1.77 1.85 2.98 2.42 1.22.57 2.68.84 4.4.8 2.5 0 4.6-.7 6.32-2.1 1.7-1.42 2.72-3.4 3.04-5.97h-.86c-.37 2.4-1.32 4.23-2.84 5.44-1.53 1.2-3.44 1.82-5.75 1.82-1.56 0-2.88-.27-3.97-.8-1.08-.56-1.96-1.3-2.65-2.24-.68-.94-1.2-2.04-1.52-3.3-.32-1.28-.5-2.65-.53-4.14zm17.53-.85h-17.53c.1-1.54.37-2.92.85-4.15.5-1.22 1.12-2.27 1.9-3.14.8-.87 1.7-1.53 2.74-2 1.04-.44 2.16-.67 3.36-.67 1.42 0 2.68.26 3.76.8 1.08.52 2 1.24 2.72 2.15.72.9 1.27 1.97 1.64 3.18.37 1.2.56 2.5.56 3.83zM672.7 371v-12.44c0-1.2.16-2.37.5-3.5.34-1.15.87-2.15 1.58-3.02.7-.87 1.62-1.55 2.72-2.05 1.1-.5 2.4-.72 3.9-.63v-.86c-1.3 0-2.45.13-3.43.44-1 .3-1.83.74-2.55 1.28-.7.55-1.28 1.18-1.7 1.9-.43.73-.75 1.5-.95 2.34h-.08v-5.43h-.87V371h.86zm12.87 0v-4.2h-.85v4.2h.85zm26.57-7.48h-.86c-.08 1.1-.35 2.1-.8 2.97-.47.86-1.06 1.6-1.8 2.23-.7.63-1.55 1.1-2.5 1.44-.93.32-1.94.5-3.02.5-1.45 0-2.74-.3-3.85-.85-1.1-.55-2.03-1.3-2.77-2.24-.74-.94-1.3-2.02-1.7-3.25-.37-1.22-.56-2.5-.56-3.85 0-1.28.16-2.58.5-3.9.32-1.33.84-2.53 1.57-3.6.73-1.07 1.7-1.94 2.9-2.6 1.22-.68 2.7-1 4.43-1 .9 0 1.78.12 2.6.37.84.26 1.58.65 2.23 1.18.66.53 1.2 1.18 1.67 1.97.46.78.77 1.7.94 2.8h.87c-.15-1.17-.47-2.2-.97-3.1-.5-.9-1.12-1.65-1.86-2.25-.74-.6-1.58-1.05-2.52-1.37-.94-.3-1.92-.47-2.95-.47-1.74 0-3.25.34-4.55 1-1.3.65-2.37 1.53-3.2 2.63-.85 1.1-1.48 2.36-1.9 3.8-.4 1.44-.6 2.96-.6 4.55 0 1.5.2 2.93.63 4.26.43 1.32 1.06 2.48 1.88 3.48.83 1 1.85 1.8 3.06 2.37 1.2.58 2.6.87 4.16.87 1.25 0 2.4-.18 3.44-.56 1.04-.36 1.95-.88 2.74-1.57.78-.68 1.4-1.5 1.9-2.5.48-.98.78-2.1.9-3.3zm4.37-3.5c0-1.37.2-2.7.6-3.98.38-1.3.95-2.42 1.72-3.4s1.72-1.78 2.84-2.37c1.13-.6 2.43-.9 3.92-.9 1.45 0 2.74.3 3.87.9 1.12.6 2.07 1.4 2.84 2.37.76.98 1.33 2.1 1.72 3.4.38 1.28.58 2.6.58 3.97 0 1.4-.2 2.75-.58 4.03-.4 1.28-.96 2.42-1.73 3.4-.78.98-1.73 1.77-2.85 2.35-1.13.6-2.42.88-3.87.88-1.5 0-2.8-.3-3.92-.88-1.12-.58-2.07-1.37-2.84-2.35s-1.34-2.12-1.73-3.4c-.4-1.28-.6-2.62-.6-4.02zm-.84 0c0 1.5.2 2.95.64 4.33.43 1.38 1.06 2.6 1.9 3.66.84 1.06 1.88 1.9 3.1 2.53 1.23.63 2.64.94 4.23.94 1.63 0 3.05-.3 4.28-.94 1.23-.63 2.27-1.47 3.1-2.52.85-1.05 1.48-2.27 1.9-3.65.44-1.38.65-2.83.65-4.34 0-1.5-.2-2.94-.64-4.33-.42-1.38-1.05-2.6-1.9-3.65-.83-1.06-1.87-1.9-3.1-2.54-1.22-.65-2.63-.97-4.22-.97-1.63 0-3.05.33-4.28.98-1.22.64-2.26 1.48-3.1 2.54-.84 1.05-1.47 2.27-1.9 3.65-.43 1.4-.64 2.83-.64 4.34zM740 349V371h.86v-12.44c0-1.23.16-2.4.5-3.5.3-1.12.78-2.1 1.4-2.93.6-.84 1.36-1.5 2.24-2 .9-.5 1.87-.76 2.95-.76 1.23 0 2.22.2 3 .6.76.4 1.36.94 1.8 1.62.42.68.7 1.47.87 2.4.15.9.23 1.87.23 2.9V371h.86v-13.94c0-1.02.16-2 .48-2.92.3-.93.77-1.75 1.36-2.46.6-.72 1.33-1.28 2.18-1.7.86-.4 1.8-.6 2.87-.6 1.2 0 2.18.16 2.96.5.78.34 1.4.83 1.88 1.45.47.63.8 1.4.98 2.27.2.88.28 1.87.28 2.95V371h.86v-14.45c0-1.2-.12-2.3-.34-3.27-.23-.98-.62-1.82-1.16-2.52-.54-.7-1.25-1.25-2.14-1.65-.88-.4-2-.6-3.33-.6-1.72 0-3.2.48-4.46 1.42-1.25.94-2.1 2.18-2.52 3.72h-.08c-.38-1.62-1.14-2.9-2.3-3.82-1.15-.93-2.58-1.36-4.3-1.3-.84 0-1.65.14-2.4.44-.76.3-1.45.72-2.08 1.26-.62.55-1.15 1.17-1.58 1.88-.43.72-.74 1.5-.94 2.36h-.08v-5.43H740zm62 31.1h.85V337.4H802v42.7zm57.33-32.5l-1.03 2.82h-.08c-.37-1.14-1.1-2.03-2.18-2.67-1.08-.65-2.3-.97-3.68-.97-1.5 0-2.9.4-4.14 1.18-1.26.78-2.33 1.8-3.2 3-.9 1.24-1.58 2.57-2.06 4-.5 1.45-.73 2.84-.73 4.18 0 .85.15 1.66.45 2.4.3.77.7 1.42 1.22 1.98.5.56 1.12 1 1.84 1.33.7.32 1.48.5 2.3.5 1 0 2.02-.2 3.06-.55 1.04-.35 1.96-1.07 2.76-2.16h.08c-.14.8.04 1.45.54 1.95s1.16.76 2 .76c1 0 2.07-.32 3.17-.94 1.1-.63 2.1-1.5 3-2.57.9-1.08 1.63-2.34 2.2-3.78.57-1.44.85-3 .85-4.64 0-1.97-.36-3.75-1.1-5.34-.72-1.6-1.7-2.96-2.96-4.08-1.26-1.1-2.72-1.96-4.4-2.56-1.7-.6-3.48-.9-5.4-.9-2.1 0-4.1.4-5.98 1.16-1.88.77-3.52 1.83-4.93 3.2-1.4 1.37-2.53 3-3.34 4.85-.82 1.87-1.23 3.92-1.23 6.14 0 2.72.45 5.05 1.35 7.02.9 1.97 2.07 3.58 3.53 4.85 1.45 1.27 3.1 2.2 4.96 2.8 1.86.6 3.74.9 5.65.9 1.3 0 2.6-.18 3.9-.53 1.3-.36 2.54-.87 3.7-1.52 1.18-.66 2.26-1.46 3.26-2.4s1.85-1.98 2.53-3.12h-.98c-.66.94-1.43 1.83-2.3 2.65-.9.83-1.87 1.55-2.94 2.16-1.06.63-2.2 1.1-3.4 1.44-1.2.35-2.44.52-3.75.52-1.97 0-3.83-.32-5.6-.94-1.77-.63-3.32-1.56-4.66-2.8-1.35-1.24-2.4-2.78-3.2-4.62-.78-1.84-1.17-3.97-1.17-6.4 0-2 .37-3.9 1.1-5.66.75-1.75 1.78-3.28 3.1-4.6 1.3-1.3 2.85-2.33 4.63-3.1 1.78-.75 3.7-1.12 5.8-1.12 1.84 0 3.57.3 5.16.87 1.6.58 2.97 1.4 4.13 2.45 1.15 1.06 2.06 2.32 2.7 3.8.67 1.5 1 3.1 1 4.88 0 1.57-.28 3.03-.82 4.38-.54 1.37-1.22 2.53-2.03 3.52-.8.98-1.7 1.76-2.67 2.33-.97.57-1.9.85-2.78.85-.57 0-1-.12-1.28-.36-.3-.24-.46-.57-.5-.98-.07-.42-.03-.9.1-1.46.16-.55.36-1.15.6-1.77l4.76-12.3h-.9zm-1.5 3.9l-3.03 7.85c-.4 1.03-.86 1.88-1.4 2.55-.52.67-1.07 1.2-1.64 1.58-.57.38-1.16.65-1.77.8-.62.13-1.2.2-1.78.2-.75 0-1.43-.13-2.06-.4-.62-.27-1.17-.65-1.62-1.14-.46-.48-.8-1.04-1.07-1.7-.26-.63-.38-1.33-.38-2.1 0-1.2.2-2.47.65-3.8.44-1.35 1.06-2.6 1.86-3.73.8-1.14 1.77-2.08 2.9-2.84 1.12-.76 2.35-1.14 3.7-1.14.53 0 1.1.06 1.68.2.58.12 1.14.33 1.67.63.52.3 1 .68 1.4 1.17.4.48.68 1.1.88 1.84zm27.98 4h.86c0-2.45-.7-4.23-2.13-5.34-1.43-1.1-3.37-1.67-5.82-1.67-1.36 0-2.5.18-3.45.53-.94.34-1.7.78-2.3 1.32-.6.54-1.03 1.14-1.3 1.8-.25.65-.38 1.28-.38 1.88 0 1.2.22 2.15.65 2.86.42.7 1.1 1.26 2 1.66.63.28 1.34.54 2.14.77.8.23 1.73.47 2.78.73l2.78.68c.9.23 1.72.53 2.42.92.7.38 1.26.88 1.7 1.47.45.6.67 1.4.67 2.36 0 .93-.2 1.72-.65 2.38-.45.65-1 1.2-1.7 1.6-.68.42-1.44.7-2.28.9-.84.2-1.66.28-2.46.28-2.58 0-4.57-.58-5.95-1.73-1.38-1.16-2.08-2.97-2.08-5.45h-.85c0 2.76.75 4.78 2.24 6.07 1.5 1.28 3.72 1.92 6.65 1.92.95 0 1.9-.1 2.85-.32.96-.2 1.8-.56 2.57-1.05.75-.48 1.37-1.1 1.84-1.88.47-.77.7-1.7.7-2.82 0-1.05-.2-1.9-.62-2.57-.4-.65-.95-1.2-1.62-1.62-.67-.42-1.43-.75-2.27-1l-2.54-.7-3.13-.8c-.9-.24-1.73-.5-2.5-.82-.74-.32-1.34-.77-1.78-1.35-.45-.6-.67-1.42-.67-2.5 0-.2.06-.56.17-1.07.1-.5.4-1.03.8-1.56.44-.53 1.1-1 1.98-1.4.88-.42 2.1-.63 3.63-.63 1.07 0 2.03.1 2.9.34.87.24 1.62.6 2.24 1.1.63.5 1.1 1.13 1.46 1.9.34.77.5 1.7.5 2.82zm6.44.3h.85c.14-2.05.85-3.64 2.13-4.76 1.28-1.13 3.08-1.7 5.4-1.7 1.44 0 2.6.2 3.45.6.86.37 1.5.86 1.95 1.46.44.6.72 1.25.83 1.97.1.7.17 1.38.17 2.04 0 .83-.16 1.46-.5 1.9-.32.44-.83.77-1.53.98-.7.22-1.6.36-2.67.43l-3.9.24c-.9.04-1.82.17-2.73.35-.9.2-1.72.5-2.44.98-.7.47-1.3 1.12-1.73 1.95-.44.83-.66 1.92-.66 3.3 0 1.96.67 3.43 2 4.42 1.35.98 3.13 1.47 5.35 1.47 1.14 0 2.2-.15 3.17-.45.96-.3 1.82-.7 2.57-1.22.76-.5 1.4-1.1 1.88-1.75.5-.66.87-1.34 1.1-2.05h.08v2.86c0 .83.24 1.4.7 1.7.48.3 1.02.44 1.65.44h1.28v-.86l-.92.07c-.32.02-.63 0-.9-.08-.3-.07-.53-.2-.7-.4-.17-.2-.25-.52-.25-.94V354.8c-.04-1.2-.26-2.2-.66-3-.4-.8-.92-1.44-1.58-1.94-.65-.5-1.42-.85-2.3-1.05-.85-.2-1.77-.3-2.74-.3-1.37 0-2.56.2-3.57.57-1 .37-1.87.88-2.57 1.54-.7.66-1.23 1.44-1.6 2.34-.37.9-.58 1.86-.64 2.88zm14.8 2.27v4.05c0 1.08-.2 2.14-.6 3.16-.37 1.04-.94 1.95-1.7 2.73-.75.78-1.7 1.42-2.8 1.9-1.1.5-2.38.73-3.8.73-1.2 0-2.2-.15-3.02-.45-.8-.3-1.47-.67-1.98-1.15-.52-.47-.88-1-1.1-1.62-.2-.6-.3-1.23-.3-1.86 0-1.17.17-2.12.54-2.84.37-.73.87-1.3 1.5-1.7.62-.43 1.34-.7 2.16-.87.8-.15 1.64-.26 2.5-.32.85-.05 1.73-.1 2.63-.13.9 0 1.73-.1 2.5-.2s1.45-.28 2.05-.5c.6-.2 1.04-.5 1.32-.9h.1zm21.13-2.58h.85c0-2.45-.7-4.23-2.14-5.34-1.42-1.1-3.36-1.67-5.8-1.67-1.38 0-2.53.18-3.47.53-.93.34-1.7.78-2.3 1.32-.6.54-1.03 1.14-1.28 1.8-.26.65-.4 1.28-.4 1.88 0 1.2.22 2.15.65 2.86.43.7 1.1 1.26 2 1.66.64.28 1.35.54 2.15.77.8.23 1.72.47 2.78.73l2.78.68c.9.23 1.7.53 2.4.92.7.38 1.28.88 1.72 1.47.44.6.66 1.4.66 2.36 0 .93-.22 1.72-.66 2.38-.44.65-1 1.2-1.7 1.6-.67.42-1.43.7-2.27.9-.85.2-1.66.28-2.46.28-2.6 0-4.58-.58-5.97-1.73-1.38-1.16-2.07-2.97-2.07-5.45h-.85c0 2.76.74 4.78 2.24 6.07 1.5 1.28 3.7 1.92 6.65 1.92.94 0 1.9-.1 2.84-.32.96-.2 1.82-.56 2.58-1.05.75-.48 1.36-1.1 1.83-1.88.48-.77.72-1.7.72-2.82 0-1.05-.2-1.9-.62-2.57-.4-.65-.96-1.2-1.63-1.62-.67-.42-1.42-.75-2.26-1l-2.53-.7-3.15-.8c-.9-.24-1.73-.5-2.5-.82-.74-.32-1.33-.77-1.77-1.35-.44-.6-.66-1.42-.66-2.5 0-.2.04-.56.16-1.07.1-.5.38-1.03.8-1.56.44-.53 1.1-1 1.98-1.4.88-.42 2.1-.63 3.63-.63 1.05 0 2.02.1 2.88.34.87.24 1.62.6 2.25 1.1.63.5 1.1 1.13 1.45 1.9.34.77.52 1.7.52 2.82zm20.8 0h.84c0-2.45-.7-4.23-2.12-5.34-1.43-1.1-3.37-1.67-5.82-1.67-1.37 0-2.52.18-3.46.53-.94.34-1.7.78-2.3 1.32-.6.54-1.04 1.14-1.3 1.8-.25.65-.38 1.28-.38 1.88 0 1.2.22 2.15.64 2.86.43.7 1.1 1.26 2 1.66.64.28 1.35.54 2.15.77.8.23 1.74.47 2.8.73l2.77.68c.9.23 1.72.53 2.4.92.7.38 1.28.88 1.72 1.47.44.6.66 1.4.66 2.36 0 .93-.22 1.72-.67 2.38-.45.65-1 1.2-1.7 1.6-.68.42-1.44.7-2.28.9-.84.2-1.66.28-2.46.28-2.6 0-4.58-.58-5.96-1.73-1.4-1.16-2.08-2.97-2.08-5.45h-.85c0 2.76.75 4.78 2.24 6.07 1.5 1.28 3.73 1.92 6.66 1.92.94 0 1.9-.1 2.84-.32.96-.2 1.8-.56 2.57-1.05.75-.48 1.37-1.1 1.84-1.88.48-.77.7-1.7.7-2.82 0-1.05-.2-1.9-.6-2.57-.42-.65-.96-1.2-1.63-1.62-.67-.42-1.43-.75-2.27-1l-2.54-.7-3.14-.8c-.9-.24-1.74-.5-2.5-.82-.75-.32-1.34-.77-1.78-1.35-.44-.6-.66-1.42-.66-2.5 0-.2.06-.56.17-1.07.1-.5.38-1.03.8-1.56.44-.53 1.1-1 1.98-1.4.88-.42 2.1-.63 3.63-.63 1.06 0 2.02.1 2.9.34.86.24 1.6.6 2.23 1.1.62.5 1.1 1.13 1.45 1.9.34.77.5 1.7.5 2.82zm6.46-6.5V371h.86v-12.44c0-1.23.15-2.4.48-3.5.32-1.12.8-2.1 1.4-2.93.62-.84 1.37-1.5 2.25-2 .9-.5 1.87-.76 2.95-.76 1.23 0 2.23.2 3 .6.76.4 1.36.94 1.8 1.62.42.68.7 1.47.87 2.4.15.9.23 1.87.23 2.9V371h.86v-13.94c0-1.02.15-2 .47-2.92.32-.93.78-1.75 1.37-2.46.6-.72 1.33-1.28 2.2-1.7.84-.4 1.8-.6 2.85-.6 1.2 0 2.2.16 2.97.5.77.34 1.4.83 1.87 1.45.47.63.8 1.4.98 2.27.2.88.28 1.87.28 2.95V371h.86v-14.45c0-1.2-.13-2.3-.35-3.27-.23-.98-.62-1.82-1.16-2.52-.55-.7-1.26-1.25-2.15-1.65-.88-.4-2-.6-3.33-.6-1.7 0-3.2.48-4.45 1.42s-2.1 2.18-2.52 3.72h-.08c-.37-1.62-1.14-2.9-2.3-3.82-1.15-.93-2.58-1.36-4.3-1.3-.84 0-1.65.14-2.4.44-.76.3-1.45.72-2.08 1.26-.63.55-1.16 1.17-1.6 1.88-.42.72-.73 1.5-.93 2.36h-.08v-5.43h-.87zm33.83 11.16h18.4c.04-1.5-.1-2.96-.46-4.36-.36-1.4-.93-2.63-1.7-3.72-.8-1.08-1.8-1.95-3.05-2.6-1.24-.66-2.7-1-4.42-1-1.23 0-2.43.27-3.6.78-1.16.52-2.2 1.26-3.07 2.25-.9.98-1.6 2.18-2.14 3.6-.54 1.43-.8 3.06-.8 4.88 0 1.64.17 3.16.54 4.57.37 1.4.94 2.63 1.7 3.67.78 1.04 1.77 1.85 2.98 2.42 1.22.57 2.68.84 4.4.8 2.5 0 4.6-.7 6.3-2.1 1.72-1.42 2.74-3.4 3.05-5.97h-.87c-.37 2.4-1.3 4.23-2.84 5.44-1.53 1.2-3.45 1.82-5.76 1.82-1.57 0-2.9-.27-3.97-.8-1.1-.56-1.97-1.3-2.66-2.24-.67-.94-1.18-2.04-1.5-3.3-.33-1.28-.5-2.65-.54-4.14zm17.53-.85h-17.54c.1-1.54.37-2.92.86-4.15.48-1.22 1.12-2.27 1.9-3.14.78-.87 1.7-1.53 2.74-2 1.04-.44 2.15-.67 3.35-.67 1.44 0 2.7.26 3.77.8 1.1.52 2 1.24 2.72 2.15.72.9 1.26 1.97 1.63 3.18.37 1.2.56 2.5.56 3.83zm6.12-14.54v-4.32h-.85v4.3h.85zm0 26.2v-21.97h-.85V371h.85zm20.02-15.48h.86c0-2.45-.7-4.23-2.14-5.34-1.42-1.1-3.36-1.67-5.8-1.67-1.38 0-2.53.18-3.48.53-.94.34-1.7.78-2.3 1.32-.6.54-1.03 1.14-1.3 1.8-.24.65-.37 1.28-.37 1.88 0 1.2.22 2.15.65 2.86.43.7 1.1 1.26 2 1.66.64.28 1.35.54 2.15.77.8.23 1.72.47 2.78.73.94.22 1.86.45 2.77.68.92.23 1.72.53 2.42.92.7.38 1.27.88 1.7 1.47.45.6.67 1.4.67 2.36 0 .93-.22 1.72-.66 2.38-.44.65-1 1.2-1.7 1.6-.67.42-1.44.7-2.28.9-.84.2-1.66.28-2.45.28-2.6 0-4.6-.58-5.97-1.73-1.38-1.16-2.07-2.97-2.07-5.45h-.85c0 2.76.75 4.78 2.25 6.07 1.5 1.28 3.7 1.92 6.65 1.92.94 0 1.88-.1 2.84-.32.94-.2 1.8-.56 2.55-1.05.76-.48 1.37-1.1 1.84-1.88.46-.77.7-1.7.7-2.82 0-1.05-.2-1.9-.62-2.57-.42-.65-.96-1.2-1.63-1.62-.67-.42-1.42-.75-2.26-1l-2.56-.7-3.14-.8c-.9-.24-1.73-.5-2.5-.82-.74-.32-1.33-.77-1.77-1.35-.45-.6-.67-1.42-.67-2.5 0-.2.06-.56.17-1.07.12-.5.4-1.03.82-1.56.42-.53 1.08-1 1.96-1.4.9-.42 2.1-.63 3.65-.63 1.05 0 2 .1 2.88.34.87.24 1.62.6 2.25 1.1.62.5 1.1 1.13 1.45 1.9.34.77.5 1.7.5 2.82zm8.83-5.64h4.96v-.85h-4.96v-6.93h-.86v6.93h-4v.85h4v17.02c0 1.56.36 2.64 1.06 3.22.7.6 1.55.88 2.54.88.66 0 1.1 0 1.35-.04l.75-.1v-.84c-.14.05-.4.1-.73.1-.34.02-.73.02-1.15.02-.35 0-.7-.02-1.03-.06-.35-.04-.66-.18-.95-.4-.28-.23-.52-.58-.7-1.03-.2-.46-.28-1.1-.28-1.92v-16.85zm8.52 10.3h18.37c.06-1.5-.1-2.96-.45-4.36-.35-1.4-.92-2.63-1.7-3.72-.8-1.08-1.8-1.95-3.04-2.6-1.24-.66-2.72-1-4.43-1-1.22 0-2.42.27-3.6.78-1.15.52-2.18 1.26-3.06 2.25-.9.98-1.6 2.18-2.15 3.6-.54 1.43-.8 3.06-.8 4.88 0 1.64.17 3.16.54 4.57.36 1.4.93 2.63 1.7 3.67.77 1.04 1.76 1.85 2.97 2.42 1.2.57 2.67.84 4.38.8 2.5 0 4.62-.7 6.33-2.1 1.7-1.42 2.72-3.4 3.04-5.97h-.86c-.37 2.4-1.32 4.23-2.84 5.44-1.53 1.2-3.44 1.82-5.75 1.82-1.57 0-2.9-.27-3.98-.8-1.1-.56-1.97-1.3-2.66-2.24-.68-.94-1.2-2.04-1.5-3.3-.34-1.28-.52-2.65-.55-4.14zm17.52-.85h-17.53c.08-1.54.36-2.92.85-4.15.48-1.22 1.1-2.27 1.9-3.14.78-.87 1.7-1.53 2.73-2 1.04-.44 2.16-.67 3.36-.67 1.43 0 2.68.26 3.76.8 1.1.52 2 1.24 2.72 2.15.72.9 1.27 1.97 1.64 3.18.37 1.2.56 2.5.56 3.83zm6.13 11.67v-12.44c0-1.2.17-2.37.5-3.5.35-1.15.88-2.15 1.6-3.02.7-.87 1.6-1.55 2.7-2.05 1.1-.5 2.4-.72 3.92-.63v-.86c-1.3 0-2.46.13-3.44.44-1 .3-1.83.74-2.55 1.28-.7.55-1.28 1.18-1.7 1.9-.43.73-.75 1.5-.95 2.34h-.08v-5.43h-.86V371h.85zm11.17-15.18h.86c.14-2.05.85-3.64 2.14-4.76 1.28-1.13 3.07-1.7 5.38-1.7 1.46 0 2.6.2 3.46.6.86.37 1.5.86 1.95 1.46.45.6.73 1.25.84 1.97.12.7.17 1.38.17 2.04 0 .83-.15 1.46-.48 1.9-.32.44-.84.77-1.54.98-.7.22-1.58.36-2.67.43l-3.88.24c-.9.04-1.82.17-2.73.35-.93.2-1.74.5-2.45.98-.7.47-1.3 1.12-1.73 1.95-.44.83-.66 1.92-.66 3.3 0 1.96.66 3.43 2 4.42 1.34.98 3.13 1.47 5.35 1.47 1.15 0 2.2-.15 3.17-.45.97-.3 1.83-.7 2.6-1.22.74-.5 1.37-1.1 1.87-1.75.5-.66.86-1.34 1.1-2.05h.07v2.86c0 .83.25 1.4.72 1.7.47.3 1.02.44 1.65.44h1.28v-.86l-.92.07c-.33.02-.63 0-.92-.08-.27-.07-.5-.2-.67-.4-.17-.2-.26-.52-.26-.94V354.8c-.03-1.2-.24-2.2-.64-3-.4-.8-.93-1.44-1.58-1.94-.66-.5-1.42-.85-2.3-1.05-.86-.2-1.78-.3-2.75-.3-1.37 0-2.56.2-3.57.57-1 .37-1.86.88-2.56 1.54s-1.24 1.44-1.6 2.34c-.38.9-.6 1.86-.65 2.88zm14.8 2.27v4.05c0 1.08-.2 2.14-.58 3.16-.4 1.04-.96 1.95-1.7 2.73-.77.78-1.7 1.42-2.8 1.9-1.12.5-2.4.73-3.82.73-1.2 0-2.2-.15-3-.45-.82-.3-1.5-.67-2-1.15-.5-.47-.88-1-1.1-1.62-.2-.6-.3-1.23-.3-1.86 0-1.17.18-2.12.55-2.84.37-.73.87-1.3 1.5-1.7.62-.43 1.34-.7 2.15-.87.8-.15 1.65-.26 2.5-.32.86-.05 1.73-.1 2.63-.13.9 0 1.73-.1 2.5-.2s1.46-.28 2.05-.5c.6-.2 1.04-.5 1.33-.9h.08zm7.66 20.42v-13.68h.1c.5 2 1.5 3.6 3.02 4.8 1.5 1.22 3.44 1.83 5.78 1.83 1.5 0 2.85-.3 4-.92 1.18-.6 2.16-1.45 2.94-2.5.8-1.05 1.38-2.28 1.8-3.68.4-1.4.62-2.86.62-4.4 0-1.65-.22-3.18-.64-4.57-.43-1.4-1.05-2.6-1.86-3.64-.82-1.02-1.8-1.82-2.95-2.4-1.17-.56-2.47-.85-3.92-.85-1.12 0-2.15.18-3.1.5-.96.33-1.8.8-2.55 1.4-.74.6-1.38 1.3-1.92 2.1-.53.82-.95 1.7-1.23 2.68h-.1v-6.15h-.84v29.5h.85zm8.9-7.86c-2.68 0-4.84-.92-6.46-2.76-1.62-1.84-2.44-4.48-2.44-7.93 0-1.42.2-2.78.6-4.06.4-1.27.98-2.4 1.73-3.37.77-.97 1.7-1.74 2.8-2.3 1.13-.58 2.38-.86 3.78-.86 1.42 0 2.67.28 3.74.85 1.06.57 1.95 1.35 2.65 2.33.7 1 1.22 2.1 1.58 3.38.35 1.27.53 2.62.53 4.04 0 1.28-.16 2.56-.5 3.83-.32 1.26-.82 2.4-1.5 3.42-.7 1-1.57 1.83-2.64 2.48-1.06.64-2.35.96-3.86.96zm15.06 7.86v-13.68h.1c.5 2 1.5 3.6 3.02 4.8 1.5 1.22 3.44 1.83 5.77 1.83 1.5 0 2.85-.3 4.02-.92 1.17-.6 2.15-1.45 2.93-2.5.78-1.05 1.38-2.28 1.8-3.68.4-1.4.6-2.86.6-4.4 0-1.65-.2-3.18-.63-4.57-.42-1.4-1.04-2.6-1.86-3.64-.82-1.02-1.8-1.82-2.96-2.4-1.15-.56-2.45-.85-3.9-.85-1.12 0-2.15.18-3.1.5-.96.33-1.8.8-2.55 1.4-.75.6-1.4 1.3-1.93 2.1-.55.82-.96 1.7-1.24 2.68h-.1v-6.15h-.84v29.5h.84zm8.9-7.86c-2.7 0-4.84-.92-6.46-2.76-1.63-1.84-2.44-4.48-2.44-7.93 0-1.42.2-2.78.6-4.06.4-1.27.97-2.4 1.73-3.37.76-.97 1.7-1.74 2.8-2.3 1.1-.58 2.37-.86 3.76-.86 1.43 0 2.67.28 3.74.85 1.07.57 1.96 1.35 2.65 2.33.7 1 1.23 2.1 1.6 3.38.34 1.27.52 2.62.52 4.04 0 1.28-.16 2.56-.5 3.83-.32 1.26-.83 2.4-1.5 3.42-.7 1-1.57 1.83-2.64 2.48-1.07.64-2.36.96-3.87.96z" fill="#646464"/><path d="M562.23 237.2c15.43-8.94 28.38-13.4 38.85-13.4 4 0 7.97.83 11.9 2.5 3.94 1.7 7.05 4.12 9.33 7.3 4.08 5.58 6.1 14.47 6.1 26.65v47.32h14.77c1.7 0 2.57 2.24 2.57 6.72 0 4.46-1.18 6.7-3.53 6.7h-43.7c-1.64 0-2.47-1.75-2.47-5.24 0-3.5.77-6 2.3-7.52.5-.5 1.04-.73 1.6-.67 6.6 0 9.9-1.36 9.9-4.1V275.2c0-12.3-.7-20.4-2.08-24.23-1.4-3.84-3.2-6.57-5.38-8.2-2.2-1.6-5.16-2.42-8.9-2.42-7.05 0-15.75 4.1-26.1 12.3v54.92h14.76c1.72 0 2.57 2.24 2.57 6.72 0 4.46-1.3 6.7-3.9 6.7h-43.32c-1.65 0-2.48-1.73-2.48-5.2 0-3.45.8-5.97 2.38-7.56.5-.5 1.02-.73 1.52-.67 6.6 0 9.9-1.36 9.9-4.1V275.2c0-12.3-.7-20.4-2.1-24.23-1.38-3.84-3.18-6.57-5.37-8.2-2.2-1.6-5.15-2.42-8.9-2.42-7.05 0-15.74 4.1-26.1 12.3v54.92h16c1.66 0 2.48 1.72 2.48 5.15 0 3.42-.48 5.66-1.46 6.7-1 1.06-1.8 1.58-2.43 1.58h-48.36c-1.78 0-2.67-1.73-2.67-5.2 0-3.45.48-5.7 1.43-6.7.95-1.02 1.68-1.53 2.2-1.53h1.23c7.3 0 11.46-.73 12.47-2.2.38-.5.57-1.13.57-1.9v-63.12h-16.75c-1.84-.06-3.08-1.68-3.72-4.85-.12-.9-.2-1.72-.2-2.48 0-3.05.84-4.9 2.5-5.52 3.48-1.4 8.22-2.38 14.22-2.95 6-.57 9.76-.86 11.3-.86h2.37c2.72 0 4.52.45 5.4 1.37.9.92 1.38 3.86 1.44 8.8v1.82c9.6-5.34 18.3-9 26.2-10.96 2.53-.64 4.65-.95 6.37-.95 11.75 0 20.2 4.46 25.33 13.4zm136.35 85.7c-14.03 0-24.72-4.57-32.1-13.7-7.35-9.15-11-21.43-10.94-36.85.07-15.43 4.62-27.36 13.67-35.8 9.05-8.45 20.02-12.7 32.9-12.76h.3c11.8 0 20.9 3.68 27.32 11.08 6.4 7.4 9.6 18.04 9.6 31.94 0 3-1.34 5.54-4.03 7.67-2.7 2.1-6.1 3.18-10.15 3.18h-50.18c1.14 14.85 6.3 24.37 15.52 28.56 2.9 1.33 6 2 9.22 2 3.24 0 6.67-.52 10.3-1.57 3.6-1.05 7.76-3.05 12.46-6 4.7-2.95 7.44-4.43 8.24-4.43.8 0 1.6.38 2.42 1.15.83.75 1.84 2 3.05 3.7 1.2 1.7 1.8 3.4 1.85 5.05.03 1.65-.3 2.73-1 3.23-11.62 9.02-24.44 13.52-38.47 13.52zm21.23-59.5c.08-16.64-6.1-24.95-18.55-24.95-6.3 0-12.13 2.2-17.52 6.57-5.4 4.38-8.32 10.5-8.76 18.38h44.84zm58.2-63.5c-5.9 0-9.94-2.62-12.1-7.82-.64-1.6-.96-3.33-.96-5.24 0-6.03 2.64-10.12 7.9-12.28 1.6-.64 3.3-.95 5.15-.95 3.67 0 6.77 1.26 9.27 3.77 2.5 2.5 3.76 5.66 3.76 9.47 0 3.75-1.23 6.86-3.7 9.33-2.5 2.48-5.6 3.72-9.34 3.72zm-24 40.45c-2.6-.06-3.9-2.6-3.9-7.6 0-3 .85-4.8 2.56-5.44 5.65-2.2 16.44-3.4 32.38-3.5h.1c2.66 0 4.05 2.68 4.18 8.08v75.7h16c1.65 0 2.47 1.72 2.47 5.18s-.48 5.7-1.44 6.72c-.95 1-1.77 1.52-2.47 1.52h-48.57c-1.65 0-2.48-1.73-2.48-5.2 0-3.45.48-5.7 1.43-6.7.95-1.02 1.68-1.53 2.2-1.53h1.23c7.44 0 11.62-.73 12.58-2.2.38-.5.54-1.13.47-1.9v-63.12H754zm88.93 67.9h10.85c8.82 0 14.76-2.7 17.8-8.1.9-1.65 1.34-3.46 1.34-5.43 0-3.68-1.7-6.57-5.1-8.66-3.4-2.1-8.56-4.2-15.52-6.34-6.95-2.12-12.23-3.96-15.85-5.52-3.62-1.55-6.76-3.4-9.43-5.57-5.45-4.57-8.18-10.85-8.18-18.85 0-11.74 6.57-19.65 19.7-23.7 4.9-1.53 9.75-2.3 14.57-2.3 10.3 0 18.5 1.4 24.58 4.2 7.62 3.5 11.4 8.53 11.33 15.13.07 3.7-1.13 6.77-3.6 9.25-2.48 2.48-5.63 3.75-9.43 3.8-5.97 0-10.03-2.6-12.2-7.8-.63-1.6-.94-2.9-.94-3.9 0-1.02.38-3.43 1.14-7.24h-9.43c-5.14 0-8.95.9-11.42 2.68-4.5 3.1-6.76 6.54-6.76 10.28 0 4.95 4.44 8.95 13.33 12l7.22 2.47c12.25 4.07 20.12 7.52 23.62 10.38 6.66 5.47 9.96 12.4 9.9 20.82-.07 8.4-3.3 15.02-9.7 19.85-6.43 4.82-14.57 7.23-24.44 7.23-9.87 0-18-1.2-24.42-3.6-9.84-3.7-14.76-8.84-14.76-15.44 0-4.06 1.26-7.33 3.76-9.8 2.5-2.48 5.64-3.72 9.38-3.72 3.68 0 6.8 1.22 9.33 3.67 2.53 2.45 3.8 5.2 3.8 8.3 0 3.07-.16 5.05-.47 5.94zm57.7-67.9c0-9.77 1.17-14.66 3.52-14.66h1.52c9.84 0 14.9-1.37 15.14-4.1l4.1-21.05c.77-3.5 4.9-5.23 12.38-5.23v30.37h25.7c1.6 0 2.38 1.85 2.34 5.56-.03 3.7-.8 6.46-2.33 8.24-.52.63-1.15.92-1.9.85h-23.82v56.18c0 7.1 2.1 10.66 6.3 10.66 4.75 0 8.13-.37 10.13-1.1 2-.73 3.58-1.1 4.72-1.1 1.14 0 2.27.84 3.38 2.53 1.1 1.68 1.67 3.4 1.67 5.2 0 1.9-.6 3.13-1.8 3.7-8.2 4.32-16 6.47-23.43 6.47-13.02 0-19.52-8.8-19.52-26.37v-56.18h-18.1zm117.87 82.55c-14.03 0-24.72-4.57-32.1-13.7-7.35-9.15-11-21.43-10.94-36.85.07-15.43 4.62-27.36 13.67-35.8 9.04-8.45 20-12.7 32.9-12.76h.28c11.82 0 20.93 3.68 27.34 11.08 6.4 7.4 9.6 18.04 9.6 31.94 0 3-1.33 5.54-4.03 7.67-2.7 2.1-6.07 3.18-10.13 3.18H994.9c1.13 14.85 6.3 24.37 15.5 28.56 2.93 1.33 6 2 9.24 2s6.67-.52 10.3-1.57c3.6-1.05 7.76-3.05 12.46-6 4.7-2.95 7.44-4.43 8.24-4.43.8 0 1.6.38 2.43 1.15.82.75 1.84 2 3.04 3.7 1.22 1.7 1.84 3.4 1.87 5.05.03 1.65-.3 2.73-1 3.23-11.62 9.02-24.44 13.52-38.47 13.52zm21.23-59.5c.07-16.64-6.12-24.95-18.56-24.95-6.3 0-12.13 2.2-17.52 6.57-5.4 4.38-8.32 10.5-8.76 18.38h44.83zm96.93-39.52l2.3-.1c1.26 0 2.86.5 4.8 1.48 1.93 1 3.74 2.46 5.42 4.43 1.7 1.96 2.53 4.8 2.53 8.56 0 3.74-1.33 6.82-4 9.23-2.66 2.4-5.67 3.6-9.04 3.6-3.36 0-6.22-1.24-8.57-3.75-2.35-2.5-3.53-5.25-3.53-8.23-3.68 1.7-6.47 3.68-8.38 5.9-1.9 2.22-3.5 4.28-4.77 6.2l-4.2 6.46v49.9h23.15c1.46 0 2.2 1.74 2.2 5.23 0 3.5-.47 5.74-1.4 6.72-.9 1-1.75 1.48-2.5 1.48h-55.43c-1.78 0-2.65-1.73-2.62-5.2.03-3.45.87-5.97 2.52-7.56.5-.44 2.3-.67 5.34-.67 6.78 0 10.17-1.36 10.17-4.1v-62.74h-16.75c-2.48 0-3.72-2.04-3.72-6.14s.83-6.47 2.48-7.1c3.36-1.4 7.95-2.35 13.76-2.86 5.8-.5 9.54-.76 11.2-.76h4.65c2.34-.06 3.74.4 4.18 1.38.44 1 .64 2.84.57 5.57l-.1 3.8c0 .77 0 1.53-.04 2.3-.02.76-.04 1.46-.04 2.1 11.05-10.1 20.98-15.15 29.8-15.15z" fill="#E24A8D"/><path d="M409.85 263.86l-.5-1.04c-5.05-10.32-6.3-13.43-8.26-20.43-1.94-6.92-3.4-13.2-4.78-19.5-.2 0-.67.86-2.46 4.38-9.2 18.15-19.87 36.24-30.08 51-.8 1.15-1.45 2.2-1.45 2.34 0 .13.5 1.44 1.08 2.9 5.38 13.28 6.64 24.38 3.96 34.6-2.62 9.96-9 18.05-19.43 24.64-3.33 2.1-7.8 4.37-11.47 5.8l-3.38 1.32c-5.13 2.02-10.46 3.32-16.35 3.98-7.25.8-12.46.44-15.64-1.12-2-.98-3.82-2.96-4.48-4.87-.7-2.07-.3-5.3 1-8.07 1.37-2.87 6.08-8.83 19.73-24.96l7.17-8.5c3.1-3.74 7.76-9.7 7.97-10.2.04-.13.88-1.3 1.87-2.64 2.86-3.84 3.32-4.5 3.32-4.8 0-.14-1.6-3.54-3.56-7.56-6.3-12.92-7.02-14.73-9.4-23.34-1.7-6.2-3.54-14.25-4.57-18.1-.06.06-1.1 2.57-2.3 5.6-6.4 15.84-13.42 31.96-19.84 45.46-6.07 12.78-17.84 35.3-25.87 49.48-.83 1.46-1.54 2.75-1.58 2.87-.34.94-3.68 5.7-5.88 8.4-1.58 1.94-4.86 5.32-6.3 6.46-4.18 3.35-7.55 4.64-11.18 4.26-2.18-.23-3.72-.72-5.3-1.7-5.05-3.13-7.87-9.9-8.67-20.77-.16-2.17-.16-8.76 0-11.34.18-2.83.57-6.7.95-9.3.22-1.6.27-2.23-.14-2.28-.1.1-.75 1.62-1.46 3.38-5.2 12.93-12.1 27.6-16.58 35.4-6.18 10.72-12 14.7-20.96 14.32-6.46-.26-10.14-2-14-6.6-7.33-8.8-13.08-24.78-14.46-40.22-.45-5.04-.38-9.13.26-15.6 1.2-12.1 3.02-21.45 5.92-30.3.94-2.84 1.04-3.3.74-3.3-.34 0-11.7 6.34-19.3 10.78-8.93 5.2-12.62 7.4-12.68 7.57-.03.1.33.98.8 1.97 5.17 10.72 7.43 26.85 5.96 42.55-2.15 22.9-11 42.08-26.7 57.8-12.67 12.68-28.12 21.3-44.83 24.96-3.85.85-8.97 1.54-12.64 1.7-1.87.1-1.92.1-1.72.26-1 0-2.12.03-2.46.06-.34.02-1.5 0-3.45-.25-5.46-.22-11.68-1.2-17.02-2.63-4.93-1.34-9.9-5.52-13.86-11.7-1.15-1.8-3.03-5.6-3.83-7.8-2.83-7.65-3.56-16.36-2.12-25.24 1.13-6.97 3.9-14.95 7.25-20.86 6.1-10.8 18.2-22.78 35.28-34.95 11.64-8.28 26.24-17.1 40.45-24.37 2.05-1.05 4.76-2.47 6.03-3.16 1.98-1.08 2.3-1.3 2.3-1.54 0-.2-.27-.54-.98-1.15-1.64-1.42-5.1-4.15-8.12-6.4-4.9-3.68-7.32-5.37-24.12-16.98-19.28-13.32-30.33-21.77-40.94-31.3-3.1-2.78-10.64-10.32-13.02-13.02C11 205.73 3.85 192.35 1.1 177.7c-.2-1-.22-1.87-.22-5.67 0-3.98.03-4.73.27-6.5 3.7-26.8 23.95-57.27 56.23-84.6 25.03-21.2 57.88-40.8 94.86-56.6 13.22-5.66 27.66-11.1 37.6-14.16C208.75 4.34 227.85 1 247 .12c1.82-.08 5.2-.12 8.56-.12 3.36 0 6.7.04 8.45.12 43.17 2.02 74.95 18.1 86 43.55 3.86 8.88 5.5 20.38 4.52 31.92-1.36 16.22-7.57 32.9-18.24 48.95-15.68 23.6-39.5 43.1-65.5 53.7-6.25 2.54-14.6 5.38-21.92 7.46-24.06 6.86-48.7 9.3-69.36 6.85-9.68-1.14-16.58-3.04-23.87-6.58-9.7-4.7-17.94-11.7-22.26-18.95-1.74-2.93-3.13-7.28-2.9-9.15.22-1.97 1.98-3.13 3.55-2.36.34.18 1.58 1.34 3.48 3.27 1.63 1.65 3.4 3.35 3.95 3.8 7.74 6.2 19.2 10.53 31.7 11.92 7.84.86 15.2.75 24.34-.38 32.88-4.07 63.57-16.6 87.6-35.8 4.35-3.48 7.76-6.52 11.8-10.55 4.5-4.52 7.87-8.35 11.25-12.84 9.65-12.8 15.2-25.42 16.62-37.86.24-2.1.2-7.68-.07-9.62-.6-4.38-1.8-8.37-3.42-11.45-6.26-11.82-23.8-20-47.34-22.02-5.9-.5-15-.66-20.65-.34-19.7 1.13-38.98 5.02-60 12.1-15.9 5.34-30.7 11.8-48.55 21.17-43.4 22.8-73.05 46.04-88.88 69.67-9.22 13.77-13.53 27.3-13.22 41.5.15 6.67 1.45 12.5 4.18 18.8 3.68 8.5 9.43 16.35 18.62 25.42 7.44 7.34 12.98 11.94 32.1 26.7 9.47 7.3 14.56 11.35 19.1 15.26 4.7 4.04 9.2 8.24 12.3 11.5 1.1 1.18 2.1 2.2 2.2 2.24.15.08 3.63-1.78 12.4-6.6 12.02-6.6 30.45-16.7 39.27-21.52l4.5-2.45 1.5-2c8.35-11.12 19.83-21.04 31.05-26.85 10.13-5.25 19.05-6.36 25.54-3.2 5.66 2.75 8.86 8.57 9.67 17.57.17 1.82.17 6.38 0 8.52-.15 1.96-.63 5.72.28 7.62.22-.12.8-.53 1.27-.9 1.1-.9 2.27-1.5 3.47-1.75 1.36-.3 3.76-.2 5.3.25 4.54 1.28 7.3 3.76 7.66 6.87.23 1.88.08 2.6-2.28 11.32-4.55 16.8-6.7 25.1-8.72 33.66-2.13 9.04-3.24 14.64-3.65 18.48-.5 4.62-.3 10.62.4 12.08.47.97 1.58-.02 3.4-3 1.9-3.12 8.48-16.33 12.5-25.07 6.43-13.97 27.68-61.67 33.78-75.83 4.63-10.75 5.2-12.37 7.27-20.63 1.1-4.44 1.67-6.44 1.97-7.04 1.03-2.02 5.96-3.7 13.2-4.5 4.38-.48 10.2-.54 12.84-.13 4 .6 6.73 2.06 7.73 4.07.57 1.16.58 1.1-1.45 7.23-3.26 9.84-4.3 13.9-4.97 19.48-.4 3.26-.4 8.8 0 12.03.48 4.04 1.37 10.1 1.63 11.1.9 3.52 2.6 7.6 5.8 13.93 1.2 2.42 1.6 3.1 1.78 3.1.28 0 .78-.8 4.62-7.3 11.38-19.2 21.6-38.2 26.46-49.16 2.15-4.83 3.13-7.65 3.82-10.95.87-4.2 2.06-8.62 3.45-12.8.44-1.3.9-2.58 1.04-2.84 1.04-2.03 5.94-3.7 13.2-4.5 4.4-.5 10.22-.55 12.85-.14 4 .6 6.73 2.05 7.73 4.07.58 1.16.6 1.08-1.44 7.22-2 6.1-2.7 8.38-3.54 11.77-1.76 7.08-2.2 13.7-1.34 20.48.57 4.5 1.33 9.45 1.65 10.68.7 2.73 1.87 5.7 3.97 10.13.38.8 1.07 2.2 1.87 3.8 5.96-7.15 16-18.76 20.8-23.15 18.12-16.6 35.77-27.48 56.38-23.68 5.77 1.06 10.95 2.92 16.15 5.8 2 1.1 6.7 4.57 8.4 6.18 2.8 2.67 4.82 5.27 6.66 8.57 4.13 7.45 3.03 5.25 3.6 13.36.12 1.98-4.4 5.7-7.54-2.68-3.15-8.36-9.72-10.98-11.56-12.1-5.7-3.43-12.96-5.36-20.32-5.4-16.58-.04-33.4 8.64-49.27 25.47-8.14 8.63-10.16 12.2-16.96 20.03 1.86 3.92 5.14 11 5.05 11.22-.04.1.16.83.46 1.63 3.52 9.46 4.92 18.65 3.83 25.18-1.66 9.88-7.8 18.65-19.24 27.45-5.43 4.17-11.8 7.65-18.53 10.1-1 .37-2.7 1-3.78 1.42-4.67 1.8-8.72 2.6-11.65 2.34-3-.28-5.98-1.6-8.06-3.55-3.68-3.48-4.78-9.6-3.17-17.6 1-4.88 2.5-9.22 4.76-13.75 1.63-3.26 3.63-6.58 5.93-9.88 4.04-7.23 10.92-16.9 19.3-27.4zM236.6 234.9c1.96-.03 3.4.68 4.04 2.1.23.48.26.77.25 2.46-.02 2.18-.3 4.05-1.23 8.2-2.2 9.73-8.28 28.36-13.76 42.1l-3.4 8.76c-6.52 17.02-10.12 25.22-13.62 31.08-2.03 3.4-3.95 5.66-5.47 6.42-.92.47-1.88.54-2.6.2-2.8-1.3-4.9-7.1-5.8-15.9-.25-2.58-.35-9.4-.18-12.47.75-12.75 3.5-24.27 8.53-35.7 3.38-7.7 9.12-17.76 13.32-23.36 4.77-6.37 11.13-11.5 16.46-13.26 1.28-.43 2.45-.64 3.47-.65zM419.45 279c.25 0 .32.14.68 1.32.92 3.12 1.3 5.5 1.3 8.35-.02 13.82-7.54 24.27-21.32 29.6-2.3.9-2.13.88-2.6.38-.6-.6-.76-1.32-.68-2.83.13-2.34 1.3-5.98 3.63-11.37 2.15-4.95 3.48-7.44 5.82-10.9 2.25-3.37 4.4-6.04 7.5-9.37 2.22-2.37 5.3-5.2 5.68-5.2zM124 300.52c.25.05.78 2.07 1.5 5.55 4.1 20.36.04 39.53-11.88 56.26-3.2 4.5-7.33 9.14-11.3 12.7-9.37 8.47-21.14 14.34-31.07 15.5-7.75.93-12.97-.73-15.68-4.95-1.47-2.3-2.23-5.18-2.37-8.9-.4-11.2 5.9-25.36 16.2-36.46 7.22-7.77 21.68-19.12 37.15-29.16 4.08-2.64 17.24-10.6 17.46-10.55zm221.5 3.66c.16 4.15-.75 8.1-2.84 12.27-3.3 6.56-9.1 12.5-17.77 18.17-2.2 1.44-4.1 2.36-5.53 2.7-.73.17-1.83.16-2.2-.02-.43-.2-.5-.65-.2-1.25.15-.28 1.5-1.8 3-3.4 5.02-5.33 11.17-12.1 14.05-15.46 1.54-1.78 5.86-7.15 8.76-10.86 1.63-2.1 2.2-2.72 2.4-2.73.26 0 .3.07.32.6z" fill="#E24A8D"/></g></svg>
