<?xml version="1.0" standalone="no"?>
<!DOCTYPE svg PUBLIC "-//W3C//DTD SVG 1.1//EN" "http://www.w3.org/Graphics/SVG/1.1/DTD/svg11.dtd" >
<svg xmlns="http://www.w3.org/2000/svg">
<metadata>
This is a custom SVG font generated by IcoMoon.
<iconset grid="14"></iconset>
</metadata>
<defs>
<font id="sassmeistericons-webfont" horiz-adv-x="448" >
<font-face units-per-em="448" ascent="384" descent="-64" />
<missing-glyph horiz-adv-x="448" />
<glyph class="hidden" unicode="&#xf000;" d="M0,384L 448 -64L0 -64 z" horiz-adv-x="0" />
<glyph unicode="&#x27;" d="M 385.277,326.786c 11.243-5.502, 21.041-13.338, 28.22-22.961c 15.11-20.256, 19.353-47.85, 12.616-82.016
	c-6.808-34.574-22.057-63.759-44.26-84.894c-4.061-4.245-8.41-8.201-13.039-11.848c-23.781-18.726-53.812-28.625-86.847-28.625
	l-5.299,0 L 176.94,96.443 L 148.693-36l-57.936,0 l 4.413,20.256l 20.181,0 l 28.247,132.443l 82.368,0 c 78.859,0, 144.785,48.597, 162.425,131.222
	C 408.395,341.473, 341.317,384, 283.65,384L 87.090,384 L0-15.744l 66.514,0 L 56-64l 115.351,0 l 28.247,132.443l 82.368,0 
	c 78.859,0, 144.785,48.597, 162.425,131.222C 459.142,268.65, 426.54,309.885, 385.277,326.786z M 280.115,247.921
	c-6.004-25.839-28.187-47.268-52.787-53.099l 13.448,59.51l 40.681,0 C 281.138,252.229, 280.703,250.093, 280.115,247.921z M 184.775,302.589
	l 56.495,0 c 16.082,0, 29.097-7.877, 35.818-20.256l-58.692,0 l-20.132-89.088l-38.199,0 L 184.775,302.589z"  />
<glyph unicode="&#x28;" d="M 371.523,315.791c 3.453,11.147, 8.069,35.9-4.603,67.588c0,0-22.354,7.099-72.922-26.744
			c-19.814,4.949-40.89,7.396-62.002,7.396c-23.229,0-46.7-2.96-68.594-8.963c-52.176,35.598-75.212,28.304-75.212,28.304
			C 73.153,345.771, 82.45,317.931, 85.277,311.015c-17.672-19.072-28.462-43.42-28.462-73.271c0-22.537, 2.566-42.752, 8.835-60.325
			l 6.591-14.928c 17.613-32.836, 52.346-54.045, 114.132-60.705c-8.769-5.888-17.714-15.907-21.34-32.861
			c-11.953-5.716-49.78-19.669-72.479,19.373c0,0-12.706,23.232-37.023,25.049c0,0-23.59,0.362-1.63-14.701
			c0,0, 15.785-7.438, 26.677-35.388c0,0, 14.207-47.68, 82.766-32.382l0-49.245 c0,0-1.448-17.419-17.418-23.223
			c0,0-9.433-6.539, 0.731-10.158c0,0, 44.265-3.63, 44.265,32.653l0,53.7 c0,0-1.756,21.296, 8.708,28.702l0-88.205 
			c0,0-0.724-21.049-11.609-29.029c0,0-7.263-13.058, 8.704-9.437c0,0, 30.479,4.357, 31.931,39.913l 0.69,89.262l 7.326,0 
			l 0.697-89.262c 1.451-35.556, 31.93-39.913, 31.93-39.913c 15.96-3.621, 8.705,9.437, 8.705,9.437
			c-10.886,7.984-11.61,29.029-11.61,29.029L 266.395,62.543 c 10.454-8.148, 8.705-27.941, 8.705-27.941l0-53.698 
			c0-36.287, 44.268-32.651, 44.268-32.651c 10.154,3.622, 0.728,10.153, 0.728,10.153c-15.968,5.805-17.417,23.224-17.417,23.224
			l0,70.387 c0,27.45-11.558,41.99-22.865,49.661c 65.894,6.535, 97.514,27.809, 112.082,60.868l 5.203,14.757
			c 4.885,17.603, 6.354,37.862, 6.354,60.452C 403.455,270.15, 391.283,296.069, 371.523,315.791z M 231.468,113.937
			c-71.831,0-130.049,10.811-130.049,80.224c0,16.617, 8.185,32.047, 22.2,44.852c 23.384,21.34, 62.954,10.041, 107.846,10.041
			c 44.693,0.007, 84.129,11.421, 107.543-9.772l 0.009-0.007c 14.192-12.859, 22.493-28.386, 22.493-45.114
			C 361.512,116.050, 303.288,113.937, 231.468,113.937zM 161.155,229.13c-14.944,0-27.058-17.433-27.058-38.943c0-21.515, 12.115-38.955, 27.058-38.955s 27.057,17.44, 27.057,38.955
			C 188.212,211.697, 176.097,229.114, 161.155,229.13zM 306.333,229.13c-14.943,0-27.056-17.433-27.056-38.943c0-21.515, 12.113-38.955, 27.056-38.955
			c 14.944,0, 27.057,17.44, 27.057,38.955C 333.391,211.697, 321.278,229.114, 306.333,229.13z"  />
<glyph unicode="&#x29;" d="M 448,298.942c-16.483-7.31-34.197-12.251-52.789-14.473c 18.975,11.375, 33.55,29.387, 40.413,50.851
	c-17.761-10.534-37.431-18.183-58.367-22.304c-16.765,17.863-40.653,29.024-67.089,29.024c-50.76,0-91.913-41.15-91.913-91.909
	c0-7.204, 0.813-14.219, 2.38-20.947c-76.388,3.834-144.113,40.425-189.445,96.034c-7.912-13.575-12.445-29.363-12.445-46.208
	c0-31.889, 16.226-60.022, 40.889-76.504c-15.067,0.478-29.239,4.612-41.63,11.497c-0.009-0.383-0.009-0.768-0.009-1.156
	c0-44.532, 31.683-81.68, 73.728-90.125c-7.711-2.1-15.832-3.225-24.215-3.225c-5.923,0-11.68,0.578-17.293,1.65
	c 11.697-36.514, 45.64-63.090, 85.86-63.829c-31.456-24.653-71.088-39.346-114.151-39.346c-7.419,0-14.735,0.435-21.926,1.286
	c 40.675-26.079, 88.988-41.297, 140.893-41.297c 169.060,0, 261.51,140.054, 261.51,261.513c0,3.985-0.090,7.948-0.267,11.891
	C 420.096,264.324, 435.678,280.511, 448,298.942z"  />
<glyph unicode="&#x24;" d="M 225.12,210.624M0,384,m 260.526-69.618 c -45.101,0.436 -91.235-22.578 -119.896-77.546 -52.41,38.983 -110.632-13.101 -95.788-63.602 -84.921-64.164 -33.022-159.356 31.066-166.628 39.665-0.195 79.321-0.385 118.986-0.588 l 0,83.664 c -20.37,0.366 -40.881-0.816 -61.166,0.938 -4.697,1.833 -5.501,7.827 -2.366,11.438 28.408,33.269 56.9,67.323 82.502,98.126 6.422,4.499 16.654,3.33 20.902-3.64 26.561-30.643 52.6-61.985 78.442-93.254 3.155-3.284 3.733-8.706 -0.028-11.76 0.312-3.132 -45.205-1.102 -63.294-2.268 -0.146-27.714 -0.287-55.418 -0.434-83.132 38.075-0.065 76.168-0.541 114.226-0.518 C 460.125,12.924 477.78,136.788 393.624,173.402 398.699,255.947 330.883,313.701 260.526,314.382 z"  />
<glyph unicode="&#x25;" d="M 225.12,210.624M 0,384 Z M 258.299,314.479 C 259.005,314.484 259.709,314.486 260.414,314.479 C 330.815,313.798 398.674,256.008 393.596,173.411 C 477.804,136.773 460.138,12.832 363.631,5.516 C 353.476,5.566 298.702,5.563 238.323,5.558 C 264.365,35.652 289.917,66.396 315.273,97.077 C 318.429,100.363 319.008,105.789 315.245,108.845 C 315.557,111.979 270.011,109.948 251.911,111.114 C 251.765,138.846 251.624,166.567 251.477,194.298 C 225.083,194.346 205.062,194.293 196.885,194.41 L 196.885,110.694 C 176.502,110.327 155.978,111.51 135.681,109.755 C 130.98,107.922 130.176,101.924 133.313,98.31 C 160.107,66.932 186.891,34.95 211.342,5.558 C 158.032,5.556 104.307,5.564 76.536,5.587 C 12.407,12.863 -40.379,109.039 44.596,173.243 C 29.742,223.776 88.001,275.892 140.444,236.885 C 168.674,291.028 213.848,314.185 258.299,314.479 Z"  />
<glyph unicode="&#xe018;" d="M 204.847-73.902 C 176.658-72.536 124.458-55.378 86.764-13.203 59.661,17.122 39.428,61.712 40.156,108.61 41.093,169.008 63.297,205.166 93.254,238.053 142.611,285.651 189.376,292.54 236.531,292.791 c 0.706,26.368 0.662,52.739 0.662,79.113 45.594-46.303 74.527-74.309 120.425-121.27 -0.237-0.686 -119.707-120.448 -120.155-120.448 C 237.053,159.687 237.193,182.176 237.193,213.962 158.941,219.862 116.712,157.873 118.299,109.59 c 1.682-80.485 68.56-106.081 106.066-107.076 80.251,8.405 109.823,69.166 105.764,121.552 25.846,0 51.692,0 77.538,0 4.186-100.928 -59.914-150.31 -63.121-153.792 -51.582-42.248 -103.994-48.88 -139.7-44.175 z"  />
<glyph unicode="&#x2f;" d="M0,407.458,m 192.624-288.368 c -2.005,7.732 -2.048,219.608 -0.047,227.292 9.959,35.763 54.401,31.638 63.862,1.918 0-76.683 0-153.367 0-230.050 -11.35-33.354 -54.778-31.772 -63.814,0.84 z m 31.248-194.287 C 29.8-71.714 -44.709,159.088 89.113,278.883 127.701,307.606 166.087,255.946 130.588,226.78 36.021,130.891 109.514-9.226 223.223-8.994 364.438-2.328 395.945,155.703 318.322,225.567 282.448,252.256 318.089,307.644 358.030,279.237 503.853,140.287 397.478-76.106 223.872-75.197 z"  />
<glyph unicode="&#x30;" d="M 119.897,7.339 C 80.017,47.935 26.557,101.037 4.798,123.353 -0.306,127.975 -0.28,138.134 1.635,143.038 3.223,147.105 50.488,193.868 54.747,196.042 c 3.977,2.030 11.077,3.328 17.994-0.85 2.019-1.22 51.083-50.576 77.326-76.676 11.209-6.89 17.236-2.28 21.936,1.156 98.169,98.296 198.393,198.817 202.043,201.662 3.608,2.812 10.128,5.842 19.927,2.054 5.918-5.143 33.396-32.318 50.335-49.565 4.325-3.901 4.444-15.714 -0.352-21.664 -13.957-14.696 -207.885-208.67 -245.746-246.047 -20.865-15.87 -58.23-14.555 -78.312,1.228 z"  />
<glyph unicode="&#x22;" d="M 199.7-72.938 C 75.032-58.196 -8.844,49.874 1.273,170.183 15.432,285.951 103.813,366.425 210.678,371.831 366.351,375.286 439.9,255.695 446.817,170.183 460.074-15.665 290.68-89.511 199.7-72.938 z M 149.104,28.4 c 21.302,19.842 35.995,37.409 64.060,63.033 3.597,4.047 18.026,4.338 23.656-0.719 20.555-19.477 35.193-35.704 61.928-61.436 6.837-5.575 18.602-5.411 23.547-1.919 4.996,3.528 23.604,22.58 25.769,26.298 2.576,4.424 2.979,12.334 -2.253,20.878 -16.305,16.442 -38.634,38.498 -62.879,63.219 -6.369,8.544 -3.881,18.929 0.923,24.609 27.849,28.020 53.484,52.602 63.034,63.579 3.499,7.467 2.86,15.119 0.712,19.842 -2.207,4.855 -21.69,24.138 -26.69,26.416 -4.355,1.985 -12.487,3.563 -20.229-1.454 -23.583-22.626 -37.034-36.347 -62.76-61.878 -9.837-7.517 -19.205-5.929 -27.31,0.141 -23.918,23.847 -28.578,29.083 -61.309,60.877 -3.888,4.103 -16.178,5.014 -20.285,3.119 -4.619-2.13 -25.756-23.064 -27.78-27.51 -0.897-1.972 -3.812-7.819 0.086-18.113 28.839-30.953 43.397-43.452 63.869-65.183 5.588-6.044 5.7-20.634 0.146-25.368 -20.939-21.775 -45.015-44.376 -62.712-62.871 -3.077-6.729 -6.196-13.955 -0.833-21.948 4.941-7.364 22.291-23.143 23.924-24.149 7.712-4.604 12.281-4.708 23.386,0.536 z"  />
<glyph unicode="&#x2a;" d="M0,407.458,m 235.374-388.988 c 17.545,0.129 30.95-0.036 49.871-0.036 -0.161,16.48 1.887,40.384 -0.965,54.077 -4.785,20.151 -18.682,34.745 -32.529,51.065 15.327,14.723 31.18,29.385 43.555,40.947 20.627-21.959 36.57-44.554 44.54-67.783 7.481-19.020 5.436-42.379 5.941-78.306 15.946-0.040 31.446-0.184 47.072-0.474 -27.186-32.2 -51.175-60.788 -78.77-93.16 -22.998,28.138 -40.29,46.825 -78.717,93.67 z m -180.234-0.585 c 17.279,0.291 30.291,0.549 48.808,0.549 0.22,31.457 -1.534,66.823 10.39,89.557 12.268,27.182 32.698,51.428 83.024,98.533 52.845,49.464 71.45,69.985 81.321,89.699 9.229,9.186 6.563,40.337 6.563,75.681 20.123,0 40.247,0 60.37,0 -0.565-27.485 1.822-61.481 -5.301-84.078 -14.379-43.37 -55.694-81.695 -90.066-113.95 -51.259-47.928 -70.109-68.828 -80.112-88.822 -8.534-27.153 -5.63-36.241 -5.63-66.619 15.643-0.325 31.998,0.001 47.502-0.547 C 188.962-10.857 156.83-47.223 133.956-75.183 107.739-43.921 83.516-15.197 55.139,17.885 z"  />
<glyph unicode="&#xe000;" d="M 112,328L 112-64L 252,76L 392-64L 392,328 	zM 336,384L 56,384L 56-8L 84,20L 84,356L 336,356 	z" />
<glyph unicode="&#xd7;" d="M 416.544,41.002c-0.002,0.002-0.004,0.004-0.004,0.004L 297.548,160l 118.992,118.994c 0.002,0.002, 0.004,0.003, 0.004,0.004
		c 1.281,1.282, 2.207,2.779, 2.801,4.373c 1.627,4.357, 0.698,9.454-2.805,12.959L 360.328,352.54c-3.504,3.503-8.599,4.43-12.958,2.804
		c-1.593-0.594-3.091-1.52-4.373-2.8c0-0.002-0.002-0.003-0.004-0.004L 224.001,233.546L 105.008,352.539
		c-0.002,0.002-0.003,0.003-0.004,0.004c-1.282,1.28-2.779,2.207-4.372,2.8c-4.359,1.628-9.454,0.699-12.959-2.804L 31.462,296.328
		c-3.504-3.504-4.431-8.6-2.804-12.958c 0.594-1.593, 1.521-3.092, 2.801-4.373c 0.002-0.001, 0.003-0.003, 0.004-0.004L 150.455,160
		L 31.462,41.005c-0.001-0.002-0.003-0.003-0.004-0.004c-1.28-1.282-2.207-2.779-2.802-4.372c-1.628-4.357-0.699-9.454, 2.804-12.959
		l 56.212-56.211c 3.505-3.504, 8.6-4.431, 12.959-2.804c 1.593,0.594, 3.091,1.521, 4.373,2.801c 0.001,0.002, 0.003,0.003, 0.004,0.004
		l 118.993,118.994l 118.993-118.994c 0.002-0.001, 0.004-0.003, 0.004-0.004c 1.283-1.281, 2.779-2.207, 4.372-2.802
		c 4.358-1.627, 9.455-0.699, 12.958,2.804l 56.211,56.212c 3.504,3.504, 4.432,8.601, 2.805,12.959
		C 418.751,38.224, 417.825,39.721, 416.544,41.002z"  />
<glyph unicode="&#xf0d8;" d="M 256,80q0-6.5 -4.75-11.25t-11.25-4.75l-224,0 q-6.5,0 -11.25,4.75t-4.75,11.25t 4.75,11.25l 112,112q 4.75,4.75 11.25,4.75t 11.25-4.75l 112-112q 4.75-4.75 4.75-11.25z" horiz-adv-x="256"  />
<glyph unicode="&#xf0d7;" d="M 256,208q0-6.5 -4.75-11.25l-112-112q-4.75-4.75 -11.25-4.75t-11.25,4.75l-112,112q-4.75,4.75 -4.75,11.25t 4.75,11.25t 11.25,4.75l 224,0 q 6.5,0 11.25-4.75t 4.75-11.25z" horiz-adv-x="256"  />
<glyph unicode="&#xe001;" d="M 47.936,124.772 C 47.847,124.789 42.725,121.688 41.139,120.657 C 35.113,116.741 29.485,112.315 26.676,109.284 C 22.664,104.955 20.217,99.435 20.371,95.065 C 20.422,93.613 20.719,92.496 21.292,91.599 C 22.345,89.953 24.381,89.306 27.395,89.663 C 31.261,90.121 35.843,92.41 39.495,95.709 C 41.038,97.102 42.646,98.916 43.89,100.665 C 48.531,107.19 50.105,114.669 48.509,122.61 C 48.236,123.966 48.028,124.754 47.936,124.772 Z M 95.805,241.936 C 96.513,241.968 97.827,241.984 99.135,241.984 C 100.443,241.984 101.744,241.968 102.428,241.936 C 119.234,241.149 131.605,234.874 135.909,224.953 C 137.411,221.49 138.046,217.005 137.669,212.502 C 137.139,206.173 134.721,199.672 130.566,193.407 C 124.465,184.208 115.192,176.593 105.071,172.468 C 102.636,171.475 99.387,170.366 96.537,169.553 C 87.17,166.884 77.573,165.935 69.534,166.885 C 65.769,167.33 63.080,168.073 60.243,169.451 C 56.465,171.287 53.261,174.022 51.58,176.845 C 50.899,177.987 50.36,179.682 50.446,180.413 C 50.536,181.181 51.218,181.633 51.832,181.331 C 51.962,181.267 52.445,180.816 53.186,180.063 C 53.82,179.42 54.511,178.754 54.722,178.584 C 57.734,176.158 62.201,174.474 67.059,173.932 C 70.117,173.59 72.981,173.634 76.539,174.075 C 89.343,175.661 101.288,180.551 110.645,188.038 C 112.339,189.393 113.665,190.581 115.234,192.153 C 116.991,193.913 118.302,195.41 119.618,197.158 C 123.375,202.147 125.533,207.074 126.085,211.924 C 126.179,212.75 126.165,214.92 126.061,215.676 C 125.826,217.384 125.361,218.942 124.728,220.142 C 122.292,224.755 115.461,227.941 106.301,228.733 C 104.002,228.932 100.457,228.989 98.26,228.862 C 90.594,228.422 83.089,226.906 74.907,224.147 C 68.723,222.062 62.954,219.541 56.010,215.888 C 39.117,207.002 27.569,197.935 21.407,188.719 C 17.818,183.35 16.14,178.070 16.264,172.532 C 16.322,169.933 16.827,167.657 17.888,165.202 C 19.321,161.889 21.562,158.823 25.137,155.288 C 28.033,152.423 30.189,150.626 37.634,144.876 C 41.32,142.029 43.302,140.442 45.074,138.918 C 46.904,137.344 48.653,135.703 49.853,134.431 C 50.286,133.973 50.674,133.58 50.716,133.558 C 50.771,133.53 52.126,134.254 55.542,136.136 C 60.219,138.713 67.396,142.652 70.827,144.526 L 72.579,145.483 L 73.16,146.257 C 76.415,150.598 80.882,154.469 85.252,156.735 C 89.195,158.78 92.666,159.216 95.194,157.983 C 97.391,156.911 98.637,154.641 98.955,151.129 C 99.019,150.42 99.019,148.643 98.955,147.809 C 98.897,147.044 98.707,145.577 99.063,144.837 C 99.15,144.879 99.372,145.037 99.557,145.186 C 99.984,145.531 100.442,145.762 100.907,145.865 C 101.44,145.984 102.375,145.941 102.978,145.769 C 104.74,145.267 105.816,144.3 105.959,143.089 C 106.045,142.357 105.988,142.070 105.069,138.672 C 103.297,132.115 102.462,128.882 101.675,125.541 C 100.844,122.016 100.413,119.831 100.253,118.335 C 100.059,116.531 100.135,114.193 100.407,113.623 C 100.588,113.244 101.023,113.629 101.727,114.791 C 102.466,116.010 105.030,121.16 106.596,124.57 C 109.098,130.017 117.369,148.624 119.744,154.146 C 121.548,158.337 121.77,158.968 122.574,162.191 C 123.004,163.918 123.224,164.7 123.342,164.931 C 123.744,165.721 125.663,166.377 128.478,166.687 C 130.185,166.875 132.455,166.898 133.481,166.74 C 135.037,166.499 136.1,165.937 136.49,165.151 C 136.713,164.7 136.718,164.728 135.927,162.333 C 134.658,158.493 134.255,156.908 133.992,154.733 C 133.839,153.467 133.837,151.3 133.989,150.047 C 134.18,148.47 134.528,146.111 134.628,145.719 C 134.978,144.345 135.637,142.752 136.878,140.283 C 137.352,139.34 137.504,139.080 137.576,139.080 C 137.682,139.080 137.878,139.39 139.373,141.918 C 143.802,149.408 147.785,156.821 149.675,161.094 C 150.509,162.978 150.891,164.078 151.159,165.366 C 151.5,167.004 151.964,168.727 152.504,170.354 C 152.673,170.863 152.855,171.363 152.908,171.467 C 153.313,172.263 155.222,172.918 158.047,173.228 C 159.755,173.416 162.024,173.44 163.050,173.281 C 164.606,173.040 165.67,172.478 166.059,171.692 C 166.282,171.241 166.288,171.269 165.497,168.874 C 164.71,166.493 164.442,165.606 164.115,164.284 C 163.431,161.522 163.263,158.94 163.594,156.299 C 163.815,154.541 164.111,152.612 164.235,152.133 C 164.51,151.069 164.963,149.911 165.783,148.18 C 165.929,147.871 166.192,147.34 166.498,146.729 C 168.817,149.508 172.721,154.012 174.582,155.717 C 181.638,162.179 188.514,166.41 196.549,164.925 C 198.797,164.51 200.818,163.783 202.842,162.66 C 203.622,162.228 205.458,160.875 206.115,160.25 C 207.211,159.209 208.001,158.195 208.717,156.909 C 209.397,155.688 209.715,155.131 209.872,154.662 C 213.821,154.376 216.706,152.644 218.527,149.468 C 224.532,152.959 229.573,154.704 233.65,154.704 C 235.207,154.704 236.751,154.376 238.283,153.72 C 239.815,153.064 241.026,152.117 241.915,150.879 C 243.497,148.701 244.288,145.235 244.288,140.482 L 244.288,122.025 L 250.033,122.025 C 250.7,122.025 251.034,121.153 251.034,119.407 C 251.034,117.662 250.576,116.789 249.662,116.789 L 232.649,116.789 C 232.007,116.789 231.685,117.47 231.685,118.832 C 231.685,120.193 231.982,121.171 232.575,121.765 C 232.773,121.964 232.983,122.050 233.205,122.025 C 235.775,122.025 237.060,122.558 237.060,123.622 L 237.060,134.651 C 237.060,139.454 236.788,142.604 236.244,144.102 C 235.701,145.6 235.003,146.665 234.15,147.296 C 233.298,147.927 232.142,148.243 230.685,148.243 C 227.942,148.243 224.556,146.646 220.529,143.452 L 220.529,122.025 L 226.274,122.025 C 226.941,122.025 227.275,121.153 227.275,119.407 C 227.275,117.662 226.768,116.789 225.755,116.789 L 208.89,116.789 C 208.248,116.789 207.926,117.464 207.926,118.813 C 207.926,120.162 208.235,121.147 208.853,121.765 C 209.051,121.964 209.248,122.050 209.446,122.025 C 212.016,122.025 213.301,122.558 213.301,123.622 L 213.301,134.651 C 213.301,139.454 213.029,142.604 212.485,144.102 C 211.942,145.6 211.244,146.665 210.391,147.296 C 209.539,147.927 208.383,148.243 206.926,148.243 C 204.183,148.243 200.797,146.646 196.77,143.452 L 196.77,122.025 L 202.997,122.025 C 203.639,122.025 203.96,121.357 203.96,120.020 C 203.96,118.683 203.769,117.811 203.386,117.402 C 203.003,116.994 202.688,116.789 202.441,116.789 L 183.611,116.789 C 182.919,116.789 182.573,117.464 182.573,118.813 C 182.573,120.162 182.759,121.035 183.129,121.431 C 183.5,121.827 183.784,122.025 183.982,122.025 L 184.464,122.025 C 187.305,122.025 188.924,122.31 189.319,122.88 C 189.468,123.078 189.542,123.325 189.542,123.622 L 189.542,148.243 L 183.018,148.243 C 182.302,148.268 181.82,148.899 181.573,150.137 C 181.523,150.483 181.499,150.805 181.499,151.102 C 181.499,152.291 181.82,153.009 182.462,153.256 C 183.821,153.801 185.668,154.184 188.004,154.407 C 190.339,154.63 191.803,154.741 192.396,154.741 L 193.322,154.741 C 194.385,154.741 195.089,154.562 195.435,154.203 C 195.781,153.844 195.966,152.699 195.991,150.768 L 195.991,150.062 C 199.722,152.142 203.12,153.566 206.184,154.333 C 206.245,154.348 206.304,154.363 206.364,154.377 C 205.051,156.374 203.264,157.11 202.683,157.461 C 200.456,158.806 197.627,159.559 194.758,159.572 C 188.296,159.599 181.749,156.221 175.565,149.671 C 172.396,146.315 171.608,144.926 168.965,141.885 C 169.687,140.361 170.975,137.578 170.942,137.49 C 170.927,137.451 171.008,137.166 171.123,136.856 C 172.493,133.165 173.037,129.58 172.613,127.033 C 171.971,123.181 169.579,119.762 165.128,116.33 C 163.015,114.702 160.536,113.347 157.915,112.388 C 157.526,112.245 156.863,111.996 156.444,111.835 C 154.625,111.135 153.047,110.818 151.907,110.924 C 150.74,111.032 149.58,111.544 148.769,112.309 C 147.337,113.662 146.908,116.051 147.538,119.168 C 147.922,121.071 148.507,122.766 149.389,124.531 C 149.968,125.69 150.666,126.869 151.463,128.045 C 153.004,130.899 155.779,134.825 159.193,139.108 C 159.134,139.229 159.074,139.353 159.012,139.48 C 157.046,143.504 156.556,144.718 155.796,147.449 C 155.045,150.144 154.474,152.594 153.942,155.049 C 153.866,155.049 153.678,154.714 152.983,153.341 C 149.401,146.263 145.246,139.207 141.272,133.453 C 140.961,133.003 140.708,132.592 140.709,132.539 C 140.71,132.486 140.899,131.978 141.128,131.409 C 143.218,126.227 143.711,121.899 142.666,117.916 C 141.645,114.029 139.161,110.873 135.104,108.302 C 133.804,107.479 132.063,106.597 130.638,106.040 C 130.255,105.891 129.663,105.659 129.322,105.525 C 127.323,104.737 125.248,104.231 122.958,103.974 C 120.137,103.656 118.105,103.803 116.87,104.411 C 116.092,104.794 115.385,105.565 115.129,106.309 C 114.851,107.117 115.008,108.381 115.52,109.458 C 116.053,110.578 117.885,112.901 123.198,119.192 C 124.348,120.554 125.604,122.048 125.988,122.511 C 127.194,123.965 129.012,126.296 129.091,126.491 C 129.11,126.537 129.44,126.997 129.823,127.513 C 130.939,129.012 131.118,129.271 131.118,129.383 C 131.118,129.44 130.495,130.769 129.733,132.336 C 127.284,137.372 127.001,138.078 126.081,141.437 C 125.417,143.862 124.697,146.995 124.296,148.496 C 124.274,148.474 123.869,147.494 123.396,146.318 C 120.911,140.137 118.175,133.848 115.679,128.583 C 113.316,123.597 108.732,114.815 105.606,109.284 C 105.285,108.715 105.008,108.212 104.991,108.166 C 104.858,107.803 103.56,105.948 102.704,104.893 C 102.089,104.136 100.809,102.82 100.253,102.374 C 98.623,101.067 97.311,100.567 95.899,100.713 C 95.050,100.802 94.451,100.995 93.832,101.379 C 91.87,102.598 90.771,105.237 90.46,109.476 C 90.398,110.325 90.399,112.893 90.462,113.901 C 90.531,115.009 90.683,116.512 90.828,117.527 C 90.917,118.151 90.935,118.399 90.777,118.421 C 90.74,118.382 90.483,117.788 90.207,117.1 C 88.178,112.059 85.501,106.336 83.752,103.296 C 81.346,99.115 79.082,97.565 75.591,97.709 C 73.077,97.812 71.647,98.49 70.146,100.288 C 67.29,103.711 65.049,109.948 64.515,115.969 C 64.34,117.937 64.366,119.53 64.614,122.054 C 65.078,126.772 65.791,130.421 66.92,133.866 C 67.285,134.98 67.325,135.16 67.209,135.16 C 67.075,135.16 62.654,132.686 59.691,130.953 C 56.218,128.922 54.783,128.064 54.758,128.003 C 54.745,127.968 54.887,127.622 55.074,127.233 C 57.083,123.051 57.961,116.763 57.388,110.64 C 56.553,101.709 53.102,94.225 46.994,88.097 C 42.064,83.15 36.050,79.794 29.545,78.362 C 28.046,78.031 26.051,77.762 24.625,77.696 C 23.895,77.662 23.877,77.658 23.953,77.596 C 23.557,77.591 23.125,77.58 22.993,77.571 C 22.861,77.562 22.407,77.568 21.649,77.669 C 19.528,77.757 17.107,78.134 15.029,78.698 C 13.107,79.22 11.18,80.851 9.633,83.263 C 9.184,83.964 8.453,85.449 8.142,86.296 C 7.045,89.286 6.761,92.684 7.32,96.146 C 7.76,98.866 8.839,101.976 10.142,104.282 C 12.521,108.491 17.231,113.165 23.877,117.911 C 28.402,121.144 34.086,124.576 39.618,127.417 C 40.417,127.827 41.473,128.381 41.967,128.649 C 42.736,129.066 42.866,129.152 42.866,129.247 C 42.866,129.327 42.756,129.455 42.482,129.694 C 41.841,130.252 40.492,131.319 39.32,132.196 C 37.408,133.628 36.47,134.29 29.929,138.817 C 22.423,144.013 18.124,147.307 13.993,151.027 C 12.79,152.109 9.852,155.052 8.925,156.101 C 3.941,161.746 1.157,166.966 0.086,172.677 C 0.013,173.063 0,173.406 0,174.889 C 0,176.442 0.013,176.735 0.108,177.425 C 1.547,187.877 9.429,199.762 21.996,210.423 C 31.739,218.69 44.529,226.336 58.923,232.5 C 64.070,234.704 69.69,236.823 73.563,238.019 C 80.919,240.29 88.355,241.6 95.805,241.936 Z M 134.155,123.346 C 134.147,123.549 134.134,123.574 134.036,123.571 C 133.952,123.569 133.734,123.323 133.096,122.506 C 131.968,121.059 130.286,118.967 129.687,118.266 C 128.565,116.952 126.174,114.317 124.213,112.233 C 123.631,111.616 123.11,111.020 123.055,110.911 C 122.937,110.678 122.963,110.502 123.125,110.425 C 123.272,110.355 123.699,110.351 123.984,110.419 C 124.544,110.55 125.278,110.91 126.135,111.471 C 129.514,113.683 131.772,115.996 133.049,118.555 C 133.863,120.186 134.218,121.722 134.155,123.346 Z M 162.943,133.173 C 162.797,133.173 161.596,132.073 160.736,131.149 C 159.526,129.85 158.691,128.808 157.812,127.499 C 156.902,126.145 156.386,125.175 155.548,123.242 C 154.637,121.143 154.185,119.722 154.135,118.81 C 154.102,118.219 154.168,117.944 154.396,117.706 C 154.583,117.51 154.518,117.502 155.416,117.851 C 160.779,119.935 163.707,124.010 163.71,129.398 C 163.71,130.516 163.568,131.439 163.207,132.656 C 163.071,133.117 163.042,133.173 162.943,133.173 Z M 91.764,150.374 C 91.365,150.37 90.91,150.286 90.412,150.121 C 88.339,149.433 85.863,147.434 84.005,144.951 C 82.37,142.768 80.135,138.842 78.82,135.843 C 76.862,131.383 75.792,126.891 75.501,121.917 C 75.431,120.726 75.472,118.059 75.574,117.051 C 75.923,113.618 76.743,111.36 77.825,110.853 C 78.108,110.72 78.481,110.749 78.845,110.932 C 79.433,111.229 80.182,112.109 80.972,113.435 C 82.336,115.72 83.735,118.918 86.276,125.555 C 86.738,126.761 87.335,128.301 87.604,128.976 C 89.737,134.331 92.108,141.596 92.96,145.397 C 93.322,147.013 93.43,147.741 93.434,148.59 C 93.437,149.25 93.425,149.363 93.336,149.555 C 93.084,150.103 92.526,150.382 91.764,150.374 Z M 271.605,116.047 C 266.144,116.047 261.98,117.829 259.114,121.394 C 256.247,124.959 254.827,129.75 254.851,135.765 C 254.876,141.781 256.649,146.436 260.17,149.728 C 263.691,153.021 267.96,154.68 272.976,154.704 L 273.088,154.704 C 277.684,154.704 281.23,153.262 283.725,150.378 C 286.221,147.494 287.469,143.341 287.469,137.919 C 287.469,136.756 286.944,135.759 285.894,134.93 C 284.844,134.101 283.528,133.686 281.946,133.686 L 262.413,133.686 C 262.857,127.893 264.871,124.179 268.454,122.545 C 269.591,122.025 270.789,121.765 272.050,121.765 C 273.31,121.765 274.644,121.97 276.053,122.378 C 277.461,122.787 279.080,123.567 280.908,124.718 C 282.737,125.869 283.806,126.445 284.115,126.445 C 284.423,126.445 284.738,126.296 285.060,125.999 C 285.381,125.702 285.776,125.219 286.246,124.551 C 286.715,123.882 286.956,123.226 286.969,122.582 C 286.981,121.939 286.851,121.518 286.579,121.32 C 282.057,117.804 277.066,116.047 271.605,116.047 Z M 262.413,139.256 L 279.871,139.256 C 279.895,145.742 277.486,148.986 272.643,148.986 C 270.196,148.986 267.923,148.131 265.823,146.423 C 263.722,144.715 262.586,142.326 262.413,139.256 Z M 302.518,164.025 C 300.22,164.025 298.65,165.040 297.81,167.070 C 297.563,167.689 297.44,168.37 297.44,169.113 C 297.44,171.465 298.465,173.062 300.516,173.903 C 301.134,174.151 301.801,174.275 302.518,174.275 C 303.951,174.275 305.155,173.786 306.132,172.808 C 307.108,171.83 307.596,170.598 307.596,169.113 C 307.596,167.652 307.114,166.439 306.15,165.474 C 305.186,164.508 303.976,164.025 302.518,164.025 Z M 293.177,148.243 C 292.164,148.268 291.657,149.258 291.657,151.214 C 291.657,152.377 291.991,153.083 292.658,153.33 C 294.857,154.197 299.058,154.655 305.26,154.704 L 305.298,154.704 C 306.335,154.704 306.879,153.652 306.928,151.548 L 306.928,122.025 L 313.155,122.025 C 313.798,122.025 314.119,121.351 314.119,120.002 C 314.119,118.652 313.934,117.78 313.563,117.384 C 313.193,116.987 312.871,116.789 312.599,116.789 L 293.696,116.789 C 293.054,116.789 292.732,117.464 292.732,118.813 C 292.732,120.162 292.918,121.035 293.288,121.431 C 293.659,121.827 293.943,122.025 294.141,122.025 L 294.623,122.025 C 297.514,122.025 299.145,122.31 299.515,122.88 C 299.664,123.078 299.725,123.325 299.701,123.622 L 299.701,148.243 Z M 327.796,121.765 L 332.022,121.765 C 335.457,121.765 337.767,122.818 338.953,124.922 C 339.299,125.566 339.472,126.271 339.472,127.039 C 339.472,128.475 338.811,129.601 337.489,130.418 C 336.167,131.235 334.153,132.058 331.447,132.887 C 328.742,133.717 326.684,134.435 325.276,135.041 C 323.867,135.648 322.644,136.372 321.606,137.214 C 319.481,138.996 318.419,141.447 318.419,144.566 C 318.419,149.146 320.976,152.229 326.091,153.813 C 327.994,154.407 329.884,154.704 331.762,154.704 C 335.765,154.704 338.953,154.16 341.325,153.070 C 344.291,151.709 345.761,149.741 345.736,147.166 C 345.761,145.73 345.291,144.529 344.328,143.564 C 343.364,142.598 342.141,142.103 340.658,142.078 C 338.335,142.078 336.754,143.093 335.914,145.123 C 335.667,145.742 335.543,146.25 335.543,146.646 C 335.543,147.042 335.691,147.983 335.988,149.468 L 332.318,149.468 C 330.317,149.468 328.834,149.122 327.87,148.429 C 326.116,147.215 325.239,145.879 325.239,144.418 C 325.239,142.487 326.969,140.927 330.428,139.739 L 333.245,138.773 C 338.014,137.189 341.078,135.84 342.437,134.726 C 345.032,132.597 346.317,129.892 346.292,126.612 C 346.267,123.331 345.007,120.75 342.511,118.869 C 340.016,116.987 336.847,116.047 333.004,116.047 C 329.162,116.047 325.992,116.517 323.497,117.458 C 319.667,118.894 317.752,120.899 317.752,123.474 C 317.752,125.058 318.24,126.333 319.216,127.299 C 320.192,128.264 321.409,128.747 322.867,128.747 C 324.3,128.747 325.511,128.27 326.499,127.317 C 327.487,126.364 327.982,125.287 327.982,124.086 C 327.982,122.886 327.92,122.112 327.796,121.765 Z M 350.258,148.243 C 350.258,152.055 350.715,153.962 351.63,153.962 L 352.223,153.962 C 356.053,153.962 358.017,154.494 358.116,155.558 L 359.71,163.765 C 360.006,165.127 361.612,165.808 364.528,165.808 L 364.528,153.962 L 374.536,153.962 C 375.154,153.962 375.456,153.238 375.444,151.789 C 375.432,150.341 375.129,149.27 374.536,148.577 C 374.338,148.329 374.091,148.218 373.795,148.243 L 364.528,148.243 L 364.528,126.333 C 364.528,123.56 365.344,122.174 366.975,122.174 C 368.828,122.174 370.144,122.316 370.922,122.601 C 371.701,122.886 372.312,123.028 372.757,123.028 C 373.202,123.028 373.64,122.7 374.073,122.044 C 374.505,121.388 374.721,120.713 374.721,120.020 C 374.721,119.277 374.487,118.795 374.017,118.572 C 370.829,116.888 367.79,116.047 364.899,116.047 C 359.833,116.047 357.301,119.475 357.301,126.333 L 357.301,148.243 Z M 396.145,116.047 C 390.684,116.047 386.521,117.829 383.654,121.394 C 380.788,124.959 379.367,129.75 379.392,135.765 C 379.416,141.781 381.189,146.436 384.711,149.728 C 388.232,153.021 392.5,154.68 397.517,154.704 L 397.628,154.704 C 402.224,154.704 405.77,153.262 408.266,150.378 C 410.761,147.494 412.009,143.341 412.009,137.919 C 412.009,136.756 411.484,135.759 410.434,134.93 C 409.384,134.101 408.068,133.686 406.487,133.686 L 386.953,133.686 C 387.398,127.893 389.412,124.179 392.995,122.545 C 394.131,122.025 395.33,121.765 396.59,121.765 C 397.85,121.765 399.185,121.97 400.593,122.378 C 402.002,122.787 403.62,123.567 405.449,124.718 C 407.277,125.869 408.346,126.445 408.655,126.445 C 408.964,126.445 409.279,126.296 409.6,125.999 C 409.921,125.702 410.317,125.219 410.786,124.551 C 411.256,123.882 411.497,123.226 411.509,122.582 C 411.521,121.939 411.392,121.518 411.12,121.32 C 406.598,117.804 401.606,116.047 396.145,116.047 Z M 386.953,139.256 L 404.411,139.256 C 404.436,145.742 402.026,148.986 397.183,148.986 C 394.737,148.986 392.463,148.131 390.363,146.423 C 388.263,144.715 387.126,142.326 386.953,139.256 Z M 442.144,154.667 L 443.033,154.704 C 443.527,154.704 444.151,154.513 444.905,154.129 C 445.659,153.745 446.363,153.169 447.018,152.402 C 447.673,151.635 448,150.52 448,149.060 C 448,147.599 447.481,146.398 446.443,145.458 C 445.405,144.517 444.232,144.047 442.922,144.047 C 441.612,144.047 440.5,144.536 439.586,145.513 C 438.672,146.491 438.215,147.562 438.215,148.726 C 436.781,148.057 435.694,147.29 434.953,146.423 C 434.212,145.557 433.594,144.752 433.1,144.009 L 431.469,141.484 L 431.469,122.025 L 440.476,122.025 C 441.044,122.025 441.328,121.345 441.328,119.983 C 441.328,118.621 441.149,117.749 440.791,117.365 C 440.432,116.981 440.105,116.789 439.809,116.789 L 418.236,116.789 C 417.544,116.789 417.205,117.464 417.217,118.813 C 417.229,120.162 417.557,121.147 418.199,121.765 C 418.397,121.939 419.089,122.025 420.275,122.025 C 422.919,122.025 424.241,122.558 424.241,123.622 L 424.241,148.094 L 417.717,148.094 C 416.754,148.094 416.272,148.893 416.272,150.49 C 416.272,152.086 416.593,153.009 417.236,153.256 C 418.545,153.801 420.331,154.172 422.592,154.37 C 424.853,154.568 426.304,154.667 426.947,154.667 L 428.763,154.667 C 429.677,154.692 430.221,154.513 430.394,154.129 C 430.567,153.745 430.641,153.021 430.616,151.956 L 430.579,150.471 C 430.579,150.174 430.573,149.877 430.561,149.58 C 430.548,149.283 430.542,149.010 430.542,148.763 C 434.842,152.699 438.709,154.667 442.144,154.667 Z M 442.144,154.667"  />
<glyph unicode="&#xe002;" d="M 198.093,383.993 L 249.907,383.993 C 256.552,384.221 262.61,379.060 264.004,372.665 C 268.239,350.122 272.281,327.536 276.541,304.993 C 277.050,301.708 279.662,298.572 283.204,298.572 C 287.123,298.659 290.157,301.533 293.295,303.522 C 310.19,314.964 327.172,326.301 344.039,337.786 C 350.413,342.903 360.32,341.65 365.493,335.421 C 377.144,323.69 388.901,312.072 400.561,300.359 C 405.742,295.33 406.268,286.429 402.052,280.664 C 389.637,262.397 377.311,244.068 364.923,225.784 C 363.388,223.55 361.81,220.983 362.485,218.144 C 363.239,214.771 366.711,213.124 369.824,212.616 C 392.022,208.507 414.229,204.433 436.419,200.324 C 442.372,199.106 446.913,193.858 448,187.988 L 448,131.041 C 446.080,125.889 442.135,121.053 436.506,119.914 C 414.299,115.814 392.075,111.757 369.876,107.613 C 366.799,107.175 363.555,105.555 362.512,102.436 C 361.679,99.115 363.652,96.189 365.458,93.613 C 377.653,75.688 389.716,57.666 401.92,39.758 C 406.172,34.055 405.883,25.118 400.71,20.063 C 388.585,7.947 376.434-4.161 364.309-16.287 C 359.259-21.64 350.185-22.148 344.355-17.785 C 325.9-5.221 307.332,7.167 288.842,19.678 C 286.65,21.246 283.792,22.148 281.144,21.272 C 278.426,20.282 276.857,17.479 276.454,14.745 C 272.631-5.616 268.914-25.994 265.144-46.373 C 264.346-50.35 264.092-54.722 261.383-57.981 C 259.174-61.205 255.509-62.879 251.897-64 L 196.042-64 C 190.264-62.537 185.1-58.148 183.961-52.12 C 179.822-29.779 175.711-7.438 171.564,14.903 C 171.108,17.803 169.241,20.817 166.19,21.456 C 163.472,22.078 160.815,20.834 158.641,19.31 C 141.563,7.728 124.379-3.688 107.345-15.332 C 104.837-16.953 102.461-18.871 99.63-19.931 C 94.378-21.579 88.162-20.624 84.147-16.699 C 71.978-4.626 59.888,7.526 47.728,19.616 C 42.433,24.488 41.705,33.363 45.756,39.206 C 58.599,58.227 71.54,77.177 84.278,96.268 C 87.329,100.131 85.111,106.229 80.245,107.105 C 60.151,111.206 39.89,114.491 19.761,118.46 C 14.904,119.397 9.451,119.432 5.523,122.875 C 2.823,124.987 1.315,128.141 0,131.216 L0,187.971 C 1.157,194.104 5.997,199.43 12.256,200.482 C 32.368,204.082 52.436,207.937 72.548,211.521 C 76.151,212.327 80.123,212.467 83.253,214.613 C 86.347,216.821 86.251,221.421 84.112,224.259 C 72.373,241.703 60.581,259.111 48.798,276.528 C 46.422,280.112 43.231,283.66 43.283,288.233 C 42.827,292.658 44.256,297.196 47.448,300.35 C 58.941,311.932 70.567,323.392 82.069,334.974 C 84.585,337.567 87.584,339.968 91.231,340.634 C 95.658,341.703 100.366,340.494 103.987,337.804 C 122.24,325.354 140.616,313.115 158.895,300.718 C 161.061,299.325 163.7,298.011 166.321,298.817 C 169.223,299.456 171.038,302.277 171.494,305.046 C 175.369,325.652 179.112,346.276 182.944,366.891 C 183.671,370.457 183.864,374.32 186.056,377.387 C 188.581,381.496 193.271,384.072 198.093,383.993 Z M 218.652,240.468 C 186.705,238.996 157.458,215.954 147.524,185.737 C 141.843,169.099 141.887,150.604 147.577,133.976 C 153.512,116.348 165.813,100.99 181.646,91.239 C 206.597,75.259 240.728,75.145 265.81,90.915 C 285.808,102.97 300.142,124.067 303.641,147.179 C 306.411,163.702 303.684,181.093 296.118,196.040 C 288.964,210.504 277.234,222.621 263.163,230.489 C 249.81,238.286 234.021,241.493 218.652,240.468 Z M 218.652,240.468"  />
<glyph unicode="&#xe003;" d="M 203.162,271.357 C 127.206,327.853 42.826,252.371 64.339,179.18 C-58.735,86.189 16.481-51.771 109.362-62.31 C 166.848-62.592 471.264-63.784 526.42-63.75 C 666.199-53.154 691.785,126.359 569.82,179.424 C 577.176,299.054 478.891,382.756 376.925,383.743 C 311.561,384.375 244.7,351.021 203.162,271.357 Z M 203.162,271.357" horiz-adv-x="647.977"  />
<glyph unicode="&#xe008;" d="M 221.133,342.711 C 128.804,342.711 53.962,267.869 53.962,175.539 C 53.962,83.209 128.804,8.367 221.133,8.367 C 313.454,8.367 388.3,83.209 388.3,175.539 C 388.3,267.869 313.454,342.711 221.133,342.711 L 221.133,342.711 L 221.133,342.711 L 221.133,342.711 Z M 221.133,45.516 C 149.44,45.516 91.111,103.845 91.111,175.539 C 91.111,247.237 149.44,305.561 221.133,305.561 C 292.827,305.561 351.151,247.237 351.151,175.539 C 351.151,103.845 292.827,45.516 221.133,45.516 L 221.133,45.516 Z M 221.133,45.516M 195.371,202.207 L 195.361,202.193 L 195.343,202.18 L 195.347,202.171 L 140.376,95.041 L 247.584,149.934 L 247.588,149.924 L 247.602,149.952 L 247.621,149.952 L 248.531,151.545 L 302.587,257.095 L 196.977,203.122 L 195.371,202.207 L 195.371,202.207 L 195.371,202.207 L 195.371,202.207 Z M 205.214,192.308 L 237.716,159.806 L 172.984,127.607 L 205.201,192.303 L 205.214,192.308 L 205.214,192.308 Z M 205.214,192.308"  />
<glyph unicode="&#x67;" d="M0,253.187c0,25.375 9.041,47.104 27.125,65.188s 39.958,27.125 65.625,27.125c 19.688,0 37.37-5.505 53.047-16.516s 26.943-25.338 33.797-42.984c 6.563,17.646 17.755,31.974 33.578,42.984s 33.505,16.516 53.047,16.516c 25.667,0 47.505-9.042 65.515-27.125s 27.016-39.813 27.016-65.188
c0-2.333 -0.365-5.906 -1.094-10.719s-4.302-14.802 -10.719-29.969s-15.203-30.989 -26.359-47.469s-29.057-37.333 -53.703-62.562s-53.594-50.531 -86.844-75.906l-0.438,0.438l0-0.438 l-0.875,0 c-33.104,25.375 -61.979,50.677 -86.625,75.906s-42.583,46.083 -53.813,62.562
s-20.052,32.302 -26.469,47.469s-9.989,25.156 -10.719,29.969s-1.094,8.385 -1.094,10.719z" horiz-adv-x="360.938"  />
<glyph unicode="&#x68;" d="M-0.438,220.156c0,1.167 0.292,2.625 0.875,4.375c 0.875,2.917 2.588,5.359 5.141,7.328s 5.287,2.807 8.203,2.516l 107.625,0 l 33.25,102.156c 2.042,6.563 6.489,9.844 13.344,9.844s 11.448-3.281 13.781-9.844l 32.813-102.156l 107.625,0 c 6.854,0 11.448-3.281 13.781-9.844c 0.292-0.875 0.438-2.333 0.438-4.375
c0-4.813 -1.969-8.677 -5.906-11.594l-86.844-62.781l 33.25-102.156c 0.583-1.75 0.875-3.281 0.875-4.594c0-4.813 -1.969-8.677 -5.906-11.594c-2.625-1.75 -5.432-2.625 -8.422-2.625s-5.87,0.875 -8.641,2.625l-86.406,63.219l-86.844-63.219c-2.625-1.75 -5.469-2.625 -8.531-2.625c-3.354,0 -6.198,0.875 -8.531,2.625c-3.938,2.625 -5.906,6.49 -5.906,11.594
c0,2.042 0.146,3.573 0.438,4.594l 33.688,101.719l-86.844,63.219c-4.229,3.208 -6.344,7.073 -6.344,11.594z" horiz-adv-x="338.625"  />
<glyph unicode="&#xe004;" d="M 425.662,162.75 L 238.37,288.8 L 238.37,212.982 C 238.37,212.982 22.4,196.4 22.4,36.671 C 22.4,36.671 49.717,102.225 154.207,114.646 C 171.298,116.678 197.271,118.683 238.437,118.683 L 238.437,36.688 L 425.662,162.75"  />
<glyph unicode="&#x20;" horiz-adv-x="224" />
</font>
</defs>
</svg>
