<?xml version="1.0" standalone="no"?>
<!DOCTYPE svg PUBLIC "-//W3C//DTD SVG 1.1//EN" "http://www.w3.org/Graphics/SVG/1.1/DTD/svg11.dtd" >
<svg xmlns="http://www.w3.org/2000/svg">
<metadata>
This is a custom SVG font generated by IcoMoon.
2
</metadata>
<defs>
<font id="SassMeisterIcons" horiz-adv-x="512" >
<font-face units-per-em="512" ascent="480" descent="-32" />
<missing-glyph horiz-adv-x="512" />
<glyph unicode="&#x26d7;" d="M 378.88,182.528l 92.16,92.16l-61.44,0.00 q-15.36,47.104 -60.672,78.08t-95.488,30.976q-67.072,0.00 -114.688-47.36t-47.616-114.432t 47.616-114.432t 114.688-47.36t 114.176,47.104l-31.744,36.352q-33.792-32.768 -79.872-32.768q-46.592,0.00 -79.616,33.024t-33.024,79.616t 33.024,79.616t 79.616,33.024q 48.64,0.00 79.872-32.768q 4.096-4.096 5.888-8.448t 3.328-10.496t 3.072-9.728l-61.44,0.00 zM 512.00,223.488 q0.00-69.632 -34.304-128.512t-93.184-93.184t-128.512-34.304t-128.512,34.304t-93.184,93.184t-34.304,128.512t 34.304,128.512t 93.184,93.184t 128.512,34.304t 128.512-34.304t 93.184-93.184t 34.304-128.512z" />
<glyph unicode="&#x26d3;" d="M 333.824,223.488q0.00,30.72 -22.016,52.224t-52.736,21.504t-52.48-21.504t-21.76-52.224t 21.76-52.224t 52.48-21.504t 52.736,21.504t 22.016,52.224zM 512.00,260.352l0.00-72.704 l-94.72-13.312q-5.12-13.824 -10.752-25.60l 61.44-80.384l-52.224-51.20l-81.408,60.416q-10.24-5.12 -26.112-10.752l-15.36-99.328l-73.216,0.00 l-13.824,100.864q-10.752,3.584 -22.016,9.216l-82.432-60.928l-51.712,51.20l 61.952,81.92q-5.632,10.752 -9.728,23.552 l-101.888,14.336l0.00,72.704 l 101.888,14.336q 3.584,10.752 9.728,23.04l-61.44,81.408l 51.712,51.20l 81.92-60.928q 7.68,4.096 24.064,10.24l 14.336,99.84l 73.216,0.00 l 14.336-99.84q 11.264-3.584 24.576-9.728l 80.896,59.904l 52.224-51.20l-60.928-79.872q 6.656-13.824 10.24-24.576z" />
<glyph unicode="&#x26ba;" d="M 256.00,466.176 C 114.91,466.176 0.512,351.778 0.512,210.688 c 0.00-141.09 114.398-255.488 255.488-255.488 128.671,0.00 235.05,95.118 252.833,218.834 1.711,8.428 2.512,17.124 2.37,26.105 C 511.381,203.614 511.488,207.142 511.488,210.688 511.488,351.778 397.126,466.176 256.00,466.176 z m 117.605-209.141 c 0.107-2.37 0.143-4.74 0.143-7.128 0.00-72.951 -55.506-157.056 -157.021-157.056 -31.183,0.00 -60.175,9.123 -84.604,24.822 4.312-0.517 8.696-0.766 13.15-0.766 25.855,0.00 49.661,8.803 68.567,23.628 -24.145,0.41 -44.547,16.393 -51.586,38.311 3.368-0.659 6.86-1.016 10.406-1.016 5.007,0.00 9.889,0.695 14.54,1.942 -25.267,5.078 -44.298,27.388 -44.298,54.116 0.00,0.285 0.00,0.481 0.00,0.695 7.448-4.098 15.966-6.611 25.018-6.896 -14.825,9.925 -24.572,26.80 -24.572,45.937 0.00,10.121 2.708,19.601 7.484,27.78 27.21-33.411 67.908-55.363 113.774-57.698 -0.944,4.045 -1.426,8.286 -1.426,12.598 0.00,30.488 24.715,55.203 55.203,55.203 15.877,0.00 30.203-6.718 40.271-17.445 12.598,2.477 24.394,7.056 35.085,13.40 -4.134-12.883 -12.883-23.699 -24.287-30.524 11.173,1.283 21.828,4.277 31.70,8.66 -7.431-11.048 -16.768-20.759 -27.548-28.564 z" />
<glyph unicode="&#xe003;" d="M 256.00,466.176 C 114.911,466.176 0.512,351.745 0.512,210.679 0.512,69.578 114.929-44.80 256.00-44.80 397.124-44.80 511.488,69.578 511.488,210.679 511.488,351.763 397.106,466.176 256.00,466.176 m 123.419-370.865 c -3.767,0.00 -8.49-1.521 -13.743-3.184 -7.075-2.175 -14.68-4.563 -21.56-5.50 -19.615,50.088 -34.437,98.902 -45.385,149.149 -9.975-17.315 -10.40-40.537 -10.736-62.999 -0.407-24.496 -0.831-49.84 -8.56-67.049 l -3.909,1.415 c -6.845,0.00 -12.823-0.761 -18.854-1.592 -5.837-0.761 -11.638-1.627 -18.20-1.627 -2.565,0.00 -5.253,0.177 -8.048,0.442 -4.21,7.57 -9.639,16.342 -15.105,25.15 -8.56,13.919 -17.174,27.838 -26.973,40.555 -3.184-7.941 -2.211-14.061 -1.203-20.145 1.839-11.814 3.59-22.975 2.565-37.265 -6.456-3.29 -21.384-11.531 -38.275-11.531 -2.618,0.00 -5.288,0.212 -7.906,0.654 C 129.468,147.309 130.617,195.487 131.891,251.358 l 0.619,32.578 c 12.027,3.431 24.762,5.943 38.894,5.943 3.219,0.00 6.562-0.177 9.975-0.389 12.292-17.421 23.188-39.37 33.676-60.54 5.943-12.062 11.921-24.142 18.483-35.603 11.779,48.425 20.80,102.51 46.941,137.953 0.69-0.407 1.999-0.46 3.449-0.46 l 1.663,0.00  c 5.624,0.00 10.435-0.778 15.228-1.592 5.041-0.814 10.081-1.627 15.918-1.627 1.839,0.00 3.767,0.00 5.695,0.248 16.413-36.257 26.088-83.639 35.48-129.411 7.252-35.638 14.822-72.426 26.424-104.526 -1.362,0.937 -3.042,1.38 -4.917,1.38" />
<glyph unicode="&#x26bd;" d="M0.00,480.00,M 256.00,466.176 C 114.898,466.176 0.512,351.79 0.512,210.688 c 0.00-70.551 28.598-134.422 74.832-180.656 0.725-0.725 1.442-1.444 2.176-2.16 C 123.572-17.095 186.551-44.80 256.00-44.80 397.102-44.80 511.488,69.586 511.488,210.688 511.488,351.79 397.102,466.176 256.00,466.176 z m -47.28-135.136 72.448,0.00 c 0.00-11.054 -33.088-7.148 -33.088-13.056 18.753-8.481 20.976-22.833 20.976-46.608 0.00-39.673 -37.152-44.583 -37.152-61.456 0.00-16.873 49.264-30.401 49.264-72.256 0.00-69.889 -86.448-65.952 -86.448-65.952 0.00,0.00 -74.72-2.694 -74.72,53.568 0.00,56.298 84.788,54.032 89.152,54.032 -1.082,12.881 -9.696,10.752 -9.696,17.104 l 0.00,15.776 c 0.00,0.00 -64.144-7.206 -64.144,54.912 0.00,62.153 73.408,63.936 73.408,63.936 z m 143.152,0.00 14.832,0.00 0.00-50.464 50.464,0.00 0.00-14.848 -50.464,0.00 0.00-50.416 -14.832,0.00 0.00,50.416 -50.416,0.00 0.00,14.848 50.416,0.00 0.00,50.464 z M 194.816,317.904 c -1.979-0.04 -3.956-0.319 -5.904-0.848 -17.815-4.839 -26.759-28.991 -19.984-53.936 6.775-24.945 26.713-41.239 44.528-36.40 17.814,4.839 26.759,28.975 19.984,53.92 C 227.406,302.857 210.932,318.228 194.816,317.904 z M 205.136,168.448 c -1.381-0.018 -2.774-0.081 -4.176-0.176 -29.915-2.03 -52.969-21.363 -51.488-43.184 1.481-21.821 26.933-37.87 56.848-35.84 29.915,2.03 52.969,21.363 51.488,43.184 -1.388,20.457 -23.845,35.846 -51.296,36.016 -0.458,0.005 -0.916,0.006 -1.376,0.00 z" />
<glyph unicode="&#x26e2;" d="M 352.00,448.00L 192.00,288.00L 96.00,288.00 L0.00,160.00c0.00,0.00, 101.708,28.326, 161.033,15.042L0.00-32.00l 210.951,164.072C 240.37,64.745, 192.00-32.00, 192.00-32.00l 128.00,96.00
	l0.00,96.00 l 160.00,160.00L 512.00,480.00L 352.00,448.00z" />
<glyph unicode="&#xe004;" d="M 448.00,128.00L 448.00,64.00L 64.00,64.00L 64.00,128.00L0.00,128.00L0.00,0.00L 512.00,0.00L 512.00,128.00 	zM 384.00,288.00L 288.00,288.00L 288.00,448.00L 224.00,448.00L 224.00,288.00L 128.00,288.00L 256.00,96.00 	z" />
<glyph unicode="&#xe005;" d="M 256.00,466.176 C 114.91,466.176 0.512,351.778 0.512,210.688 c 0.00-141.09 114.398-255.488 255.488-255.488 128.635,0.00 235.014,95.10 252.833,218.817 1.711,8.446 2.512,17.142 2.37,26.105 C 511.381,203.632 511.488,207.16 511.488,210.688 511.488,351.778 397.09,466.176 256.00,466.176 z m 181.771-274.376 c 0.624-0.196 0.98-0.855 0.802-1.479 -0.413-0.682 -0.817-0.837 -1.479-0.837 -31.005,9.48 -69.334,10.78 -82.092,11.226 -19.246-27.978 -43.255-34.396 -70.599-37.259 11.939-7.52 15.342-16.946 15.342-42.391 0.00-25.463 -0.356-28.885 -0.285-34.729 0.143-9.604 14.237-14.237 13.721-17.32 -0.552-3.083 -11.796-2.602 -17.053-0.766 -14.932,5.221 -13.435,17.623 -13.435,17.623 l -0.481,34.034 c 0.00,0.00 1.016,18.336 -5.809,18.336 l 0.00-55.755 c 0.00-12.117 8.553-15.805 8.553-20.278 0.00-7.716 -15.556,0.731 -20.296,5.56 -7.27,7.288 -6.433,22.79 -6.308,35.014 0.178,11.832 -0.107,37.723 -0.107,37.723 l -4.90-0.178 c 0.00,0.00 2.014-56.54 -2.602-66.821 -5.987-13.222 -24.056-17.783 -24.056-11.725 0.00,4.045 4.419,2.726 6.896,11.832 2.12,7.716 1.39,65.324 1.39,65.324 0.00,0.00 -5.773-3.403 -5.773-14.22 0.00-4.918 -0.143-33.143 -0.143-41.536 0.00-10.584 -15.004-16.589 -22.202-16.589 -3.653,0.00 -8.215,0.178 -8.215,2.12 0.00,4.882 13.721,7.751 13.721,17.908 0.00,8.82 -0.178,31.504 -0.178,31.504 0.00,0.00 -6.932-1.176 -16.768-1.176 -24.875,0.00 -32.787,15.859 -36.511,24.751 -4.865,11.547 -11.208,16.999 -17.89,21.347 -4.134,2.655 -5.078,5.791 -0.321,6.718 22.024,4.116 27.673-24.982 42.356-29.633 10.513-3.314 23.984-1.871 30.702,2.477 0.873,8.909 7.306,16.607 12.634,20.634 -27.741,4.39 -59.184,16.994 -71.08,37.545 -39.113-0.944 -61.315-6.486 -77.601-10.567 -1.243-0.23 -4.384-1.443 -4.708-0.527 -0.429,0.869 3.991,2.001 5.406,2.343 16.215,4.081 37.025,10.104 75.693,11.138 -1.087,2.138 -2.049,4.33 -2.922,6.629 -15.004,0.178 -61.315-2.014 -77.192-5.934 -0.66-0.011 -1.325,0.389 -1.461,0.909 -0.143,0.641 0.249,1.283 0.873,1.461 15.734,3.867 60.941,6.023 76.942,5.987 -3.582,10.602 -5.185,22.719 -5.185,36.297 0.00,24.073 7.484,33.125 17.569,45.991 -7.733,27.441 2.744,46.187 2.744,46.187 0.00,0.00 16.18,3.35 46.775-18.55 16.607,7.074 60.798,7.716 81.753,1.568 12.847,8.517 36.333,20.527 45.795,17.16 2.584-4.134 8.108-16.162 3.368-42.623 3.207-5.809 19.939-18.175 19.975-53.10 -0.249-12.883 -1.604-23.77 -4.081-32.965 39.879,0.321 63.346-2.976 79.526-5.934 0.624-0.178 1.087-0.748 0.98-1.408 -0.391-0.678 -0.713-0.967 -1.39-0.98 -16.18,2.976 -39.647,6.272 -79.811,5.88 -0.695-2.334 -1.497-4.526 -2.37-6.682 13.685-0.445 51.229-1.907 81.789-11.244 z" />
<glyph unicode="&#xe002;" d="M0.00,480.00,M 256.00,466.176 C 155.538,467.57 58.651,403.002 20.59,310.144 -19.146,218.916 1.42,105.588 71.063,34.418 138.071-37.701 248.468-64.013 340.907-30.354 436.727,2.194 507.363,96.329 511.156,197.557 517.516,295.952 460.489,394.307 372.324,438.227 336.502,456.635 296.266,466.237 256.00,466.176 z M 375.00,304.571 C 334.257,272.242 293.514,239.914 252.771,207.586 212.022,239.914 171.273,272.242 130.524,304.571 c 81.492,0.00 162.985,0.00 244.477,0.00 z M 114.415,291.636 c 28.716-22.786 57.432-45.572 86.148-68.358 -28.716-28.712 -57.432-57.424 -86.148-86.136 0.00,51.498 0.00,102.996 0.00,154.494 z m 11.447-171.184 c 30.125,30.127 60.25,60.254 90.375,90.381 12.19-9.191 25.033-20.787 36.825-28.555 12.65,10.026 25.30,20.053 37.95,30.079 30.609-30.605 61.217-61.21 91.826-91.815 -85.596-0.06 -171.695,0.121 -256.976-0.091 z M 396.442,135.056 C 366.553,164.947 336.664,194.838 306.775,224.73 c 29.889,23.705 59.778,47.41 89.668,71.115 0.00-53.596 0.00-107.193 0.00-160.789 z" />
<glyph unicode="&#x21;" d="M 256.005,466.176 C 114.91,466.176 0.50,351.801 0.50,210.723 0.50,69.576 114.91-44.80 256.005-44.80 397.144-44.80 511.502,69.576 511.502,210.723 511.537,351.801 397.144,466.176 256.005,466.176 M 369.36,181.092 258.044,70.098 146.754,181.092 c 0.00,0.00 -37.091,34.686 -37.091,74.217 0.00,55.636 36.063,74.53 73.833,74.53 33.095,0.00 65.363-34.723 72.913-43.404 1.078-1.24 1.653-1.949 1.653-1.949 0.00,0.00 0.456,0.562 1.317,1.561 6.882,7.975 39.658,43.791 73.24,43.791 37.806,0.00 73.868-18.894 73.868-74.53 -0.035-39.531 -37.126-74.217 -37.126-74.217M 257.28,281.856" />
<glyph unicode="&#x22;" d="M0.00,480.00,M0.00,480.00,m 255.983-13.824 c -141.118,0.00 -255.488-114.388 -255.488-255.488 0.00-141.10 114.405-255.488 255.488-255.488 141.135,0.00 255.522,114.388 255.522,255.488 0.00,141.10 -114.387,255.488 -255.522,255.488 z m -75.31-116.541 97.68,0.00 c 41.351,2.454 76.95-27.13 77.914-65.27 -0.986-24.099 -9.259-48.451 -25.219-64.784 -16.416-16.313 -35.084-21.681 -55.057-24.663 -23.972-1.939 -38.446-1.598 -62.318-1.598 -5.897-27.992 -11.67-56.01 -17.612-83.993 l -65.722,0.00 z M 358.869,186.09 C 322.554,158.551 291.363,154.002 250.50,154.002 244.587,126.001 239.582,99.726 233.595,71.741 l -65.687,0.00 3.717,17.681 c 13.524,0.00 27.048,0.00 40.572,0.00 6.026,28.634 12.408,59.173 17.629,84.062 30.201,0.475 59.428-0.179 86.199,11.532 10.559,4.793 31.353,17.705 40.175,26.563 23.111,32.18 19.513,39.242 19.536,81.92 28.647-32.324 7.783-81.141 -16.867-107.41 z M 276.305,254.877 c 19.495,3.954 23.098,37.089 1.333,37.887 -14.341,1.006 -28.723,0.783 -43.088,0.737 -3.068-14.566 -6.137-29.132 -9.205-43.699 17.495,0.885 36.63,0.598 50.96,5.075 z" />
<glyph unicode="&#x23;" d="M0.00,480.00,M 225.204,257.871 c 7.152-5.713 16.85-7.016 25.726-6.182 6.18,0.669 12.417,2.456 17.475,6.182 5.003,10.181 8.413,22.184 4.991,33.398 -2.817,9.618 -11.504,16.819 -21.228,18.702 -10.24,2.245 -22.072-1.081 -28.301-9.851 -5.966-8.248 -5.915-19.257 -3.487-28.749 1.157-4.646 2.839-9.149 4.824-13.501 zM 256.983,466.174 c -141.113,0.536 -255.933-113.436 -256.469-254.539 -0.536-141.103 113.426-255.915 254.539-256.433 141.113-0.554 255.897,113.40 256.434,254.503 0.518,141.138 -113.426,255.951 -254.503,256.469 z m 77.411-158.242 c -6.345-1.215 -11.832-3.36 -18.195-4.575 11.242-31.581 -5.577-72.705 -34.139-86.431 -15.175-7.274 -40.18-4.414 -40.931-22.77 -1.073-26.237 68.116-28.721 81.879-45.468 15.157-18.319 12.744-58.067 -4.54-77.334 -24.737-27.595 -109.101-29.579 -136.501,0.00 -22.539,24.289 -14.728,83.875 27.275,88.701 -17.838,6.309 -18.946,50.471 -2.27,59.14 -64.702,41.786 -36.444,145.982 52.352,134.204 20.108-2.645 48.009-17.015 75.052,0.00 l 0.00-45.468  zM 216.07,103.168 c 2.58-7.286 10.082-11.158 17.074-13.217 11.685-3.236 24.429-2.949 35.875,1.112 7.806,2.801 15.471,8.506 17.226,17.048 1.691,8.12 -1.326,17.411 -8.489,21.986 -8.29,5.395 -18.703,5.837 -28.27,4.976 -8.563-0.936 -17.054-2.999 -25.001-6.343 -4.966-2.075 -9.75-6.09 -10.393-11.751 -0.651-4.68 0.543-9.389 1.978-13.812 z" />
<glyph unicode="&#x30;" d="M 96.256,56.576l-42.496,42.496l 95.744,95.744l 42.496-42.496zM 415.744,56.576l-95.744,95.744l 42.496,42.496l 95.744-95.744zM 149.504,322.816l-95.744,95.744l 42.496,42.496l 95.744-95.744zM0.00,289.024l 135.68,0.00 l0.00-60.416 l-135.68,0.00 l0.00,60.416 zM 376.32,228.608l0.00,60.416 l 135.68,0.00 l0.00-60.416 l-135.68,0.00 zM 286.208,2.816l-60.416,0.00 l0.00,135.68 l 60.416,0.00 l0.00-135.68 zM 286.208,379.136l-60.416,0.00 l0.00,135.68 l 60.416,0.00 l0.00-135.68 z" />
<glyph unicode="&#x37;" d="M 96.256,56.576l-42.496,42.496l 95.744,95.744l 42.496-42.496zM 415.744,461.056l 42.496-42.496l-95.744-95.744l-42.496,42.496zM 415.744,56.576l-95.744,95.744l 42.496,42.496l 95.744-95.744zM 149.504,322.816l-95.744,95.744l 42.496,42.496l 95.744-95.744zM0.00,289.024l 135.68,0.00 l0.00-60.416 l-135.68,0.00 l0.00,60.416 zM 376.32,228.608l0.00,60.416 l 135.68,0.00 l0.00-60.416 l-135.68,0.00 zM 286.208,2.816l-60.416,0.00 l0.00,135.68 l 60.416,0.00 l0.00-135.68 z" />
<glyph unicode="&#x36;" d="M 96.256,56.576l-42.496,42.496l 95.744,95.744l 42.496-42.496zM 415.744,461.056l 42.496-42.496l-95.744-95.744l-42.496,42.496zM 415.744,56.576l-95.744,95.744l 42.496,42.496l 95.744-95.744zM0.00,289.024l 135.68,0.00 l0.00-60.416 l-135.68,0.00 l0.00,60.416 zM 376.32,228.608l0.00,60.416 l 135.68,0.00 l0.00-60.416 l-135.68,0.00 zM 286.208,2.816l-60.416,0.00 l0.00,135.68 l 60.416,0.00 l0.00-135.68 zM 286.208,379.136l-60.416,0.00 l0.00,135.68 l 60.416,0.00 l0.00-135.68 z" />
<glyph unicode="&#x35;" d="M 96.256,56.576l-42.496,42.496l 95.744,95.744l 42.496-42.496zM 415.744,461.056l 42.496-42.496l-95.744-95.744l-42.496,42.496zM 415.744,56.576l-95.744,95.744l 42.496,42.496l 95.744-95.744zM 149.504,322.816l-95.744,95.744l 42.496,42.496l 95.744-95.744zM 376.32,228.608l0.00,60.416 l 135.68,0.00 l0.00-60.416 l-135.68,0.00 zM 286.208,2.816l-60.416,0.00 l0.00,135.68 l 60.416,0.00 l0.00-135.68 zM 286.208,379.136l-60.416,0.00 l0.00,135.68 l 60.416,0.00 l0.00-135.68 z" />
<glyph unicode="&#x34;" d="M 415.744,461.056l 42.496-42.496l-95.744-95.744l-42.496,42.496zM 415.744,56.576l-95.744,95.744l 42.496,42.496l 95.744-95.744zM 149.504,322.816l-95.744,95.744l 42.496,42.496l 95.744-95.744zM0.00,289.024l 135.68,0.00 l0.00-60.416 l-135.68,0.00 l0.00,60.416 zM 376.32,228.608l0.00,60.416 l 135.68,0.00 l0.00-60.416 l-135.68,0.00 zM 286.208,2.816l-60.416,0.00 l0.00,135.68 l 60.416,0.00 l0.00-135.68 zM 286.208,379.136l-60.416,0.00 l0.00,135.68 l 60.416,0.00 l0.00-135.68 z" />
<glyph unicode="&#x33;" d="M 96.256,56.576l-42.496,42.496l 95.744,95.744l 42.496-42.496zM 415.744,461.056l 42.496-42.496l-95.744-95.744l-42.496,42.496zM 415.744,56.576l-95.744,95.744l 42.496,42.496l 95.744-95.744zM 149.504,322.816l-95.744,95.744l 42.496,42.496l 95.744-95.744zM0.00,289.024l 135.68,0.00 l0.00-60.416 l-135.68,0.00 l0.00,60.416 zM 376.32,228.608l0.00,60.416 l 135.68,0.00 l0.00-60.416 l-135.68,0.00 zM 286.208,379.136l-60.416,0.00 l0.00,135.68 l 60.416,0.00 l0.00-135.68 z" />
<glyph unicode="&#x32;" d="M 96.256,56.576l-42.496,42.496l 95.744,95.744l 42.496-42.496zM 415.744,461.056l 42.496-42.496l-95.744-95.744l-42.496,42.496zM 149.504,322.816l-95.744,95.744l 42.496,42.496l 95.744-95.744zM0.00,289.024l 135.68,0.00 l0.00-60.416 l-135.68,0.00 l0.00,60.416 zM 376.32,228.608l0.00,60.416 l 135.68,0.00 l0.00-60.416 l-135.68,0.00 zM 286.208,2.816l-60.416,0.00 l0.00,135.68 l 60.416,0.00 l0.00-135.68 zM 286.208,379.136l-60.416,0.00 l0.00,135.68 l 60.416,0.00 l0.00-135.68 z" />
<glyph unicode="&#x31;" d="M 96.256,56.576l-42.496,42.496l 95.744,95.744l 42.496-42.496zM 415.744,461.056l 42.496-42.496l-95.744-95.744l-42.496,42.496zM 415.744,56.576l-95.744,95.744l 42.496,42.496l 95.744-95.744zM 149.504,322.816l-95.744,95.744l 42.496,42.496l 95.744-95.744zM0.00,289.024l 135.68,0.00 l0.00-60.416 l-135.68,0.00 l0.00,60.416 zM 286.208,2.816l-60.416,0.00 l0.00,135.68 l 60.416,0.00 l0.00-135.68 zM 286.208,379.136l-60.416,0.00 l0.00,135.68 l 60.416,0.00 l0.00-135.68 z" />
<glyph unicode="&#x24;" d="M 253.096,459.468C 123.032,457.728, 19.016,350.867, 20.74,220.796c 1.744-130.008, 108.588-234.06, 238.652-232.328
		c 130.04,1.748, 234.08,108.609, 232.349,238.668C 490.003,357.156, 383.14,461.204, 253.096,459.468z M 279.20,380.98
		c 23.944,0.00, 31.016-13.892, 31.016-29.772c0.00-19.852-15.892-38.199-42.992-38.199c-22.68,0.00-33.473,11.412-32.841,30.26
		C 234.384,359.152, 247.688,380.98, 279.20,380.98z M 217.82,76.768c-16.359,0.00-28.347,9.924-16.896,53.588l 18.764,77.44
		c 3.265,12.412, 3.816,17.372,0.00,17.372c-4.904,0.00-26.144-8.572-38.688-17.012l-8.176,13.40
		C 212.624,254.793, 258.392,274.288, 278.016,274.288c 16.352,0.00, 19.08-19.352, 10.905-49.12l-21.496-81.412
		c-3.816-14.388-2.176-19.348, 1.632-19.348c 4.912,0.00, 20.992,5.968, 36.801,18.38l 9.264-12.412
		C 276.417,91.676, 234.167,76.768, 217.82,76.768z" />
<glyph unicode="&#x25;" d="M 253.096,459.468C 123.032,457.728, 19.016,350.867, 20.74,220.796c 1.744-130.008, 108.588-234.06, 238.652-232.328
		c 130.04,1.74, 234.08,108.603, 232.349,238.668C 490.003,357.156, 383.14,461.196, 253.096,459.468z M 252.40,80.608l-0.008,0.00 
		l-1.296,0.019c-20.027,0.592-34.147,15.349-33.576,35.08c 0.56,19.393, 15.02,33.473, 34.384,33.473l 1.164-0.015
		c 20.588-0.612, 34.552-15.217, 33.972-35.516C 286.468,94.196, 272.228,80.608, 252.40,80.608z M 336.648,247.82
		c-4.708-6.688-15.068-15.001-28.124-25.168l-14.372-9.921c-7.888-6.136-12.644-11.904-14.439-17.58
		c-1.408-4.469-2.096-5.651-2.212-14.745l-0.029-2.312L 222.60,178.095 l 0.16,4.644c 0.664,19.087, 1.14,30.316, 9.044,39.596
		c 12.416,14.572, 39.788,32.20, 40.949,32.948c 3.928,2.952, 7.236,6.32, 9.696,9.908c 5.756,7.94, 8.312,14.197, 8.312,20.337
		c0.00,8.524-2.536,16.408-7.533,23.428c-4.809,6.776-13.944,10.208-27.148,10.208c-13.10,0.00-22.075-4.156-27.448-12.687
		c-5.512-8.769-8.309-17.979-8.309-27.388l0.00-2.34 L 163.744,276.748 l 0.104,2.44c 1.46,34.656, 13.824,59.608, 36.752,74.177
		c 14.408,9.264, 32.325,13.963, 53.232,13.963c 27.377,0.00, 50.48-6.652, 68.677-19.771c 18.432-13.287, 27.776-33.20, 27.776-59.165
		C 350.284,273.868, 345.70,260.22, 336.648,247.82z" />
<glyph class="hidden" unicode="&#xf000;" d="M0,480L 512 -32L0 -32 z" horiz-adv-x="0" />
</font>
</defs>
</svg>
