<?xml version="1.0"?><svg xmlns="http://www.w3.org/2000/svg"><symbol viewBox="0 0 32 32" id="bookmark"><title>bookmark</title><path d="M6 0v32l10-10 10 10v-32z"/></symbol><symbol viewBox="0 0 18 32" id="caret-down"><title>caret-down</title><path fill="#707070" d="M18.286 12.571q0 0.464-0.339 0.804l-8 8q-0.339 0.339-0.804 0.339t-0.804-0.339l-8-8q-0.339-0.339-0.339-0.804t0.339-0.804 0.804-0.339h16q0.464 0 0.804 0.339t0.339 0.804z"/></symbol><symbol viewBox="0 0 18 32" id="caret-up"><title>caret-up</title><path fill="#707070" d="M18.286 21.714q0 0.464-0.339 0.804t-0.804 0.339h-16q-0.464 0-0.804-0.339t-0.339-0.804 0.339-0.804l8-8q0.339-0.339 0.804-0.339t0.804 0.339l8 8q0.339 0.339 0.339 0.804z"/></symbol><symbol viewBox="0 0 32 32" id="checkmark"><title>checkmark</title><path d="M8.564 26.904c-2.849-2.9-6.667-6.693-8.221-8.287-0.365-0.33-0.363-1.056-0.226-1.406 0.113-0.291 3.49-3.631 3.794-3.786 0.284-0.145 0.791-0.238 1.285 0.061 0.144 0.087 3.649 3.613 5.523 5.477 0.801 0.492 1.231 0.163 1.567-0.083 7.012-7.021 14.171-14.201 14.432-14.404 0.258-0.201 0.723-0.417 1.423-0.147 0.423 0.367 2.385 2.308 3.595 3.54 0.309 0.279 0.317 1.122-0.025 1.547-0.997 1.050-14.849 14.905-17.553 17.575-1.49 1.134-4.159 1.040-5.594-0.088z"/></symbol><symbol viewBox="0 0 32 32" id="close"><title>close</title><path d="M14.249 31.774c-8.896-1.053-14.882-8.772-14.159-17.366 1.010-8.269 7.317-14.017 14.943-14.403 11.109-0.247 16.357 8.295 16.851 14.403 0.946 13.275-11.142 18.55-17.634 17.366v0zM10.639 24.536c1.521-1.417 2.569-2.672 4.572-4.502 0.257-0.289 1.287-0.31 1.688 0.051 1.467 1.391 2.512 2.55 4.419 4.388 0.488 0.398 1.328 0.387 1.68 0.137 0.357-0.252 1.684-1.613 1.839-1.878 0.184-0.316 0.213-0.881-0.161-1.491-1.164-1.174-2.757-2.75-4.487-4.516-0.455-0.61-0.277-1.352 0.066-1.758 1.987-2.001 3.816-3.757 4.498-4.541 0.25-0.533 0.204-1.080 0.051-1.417-0.158-0.347-1.547-1.724-1.904-1.887-0.311-0.142-0.891-0.255-1.444 0.104-1.682 1.616-2.642 2.596-4.479 4.42-0.702 0.537-1.371 0.424-1.949-0.010-1.706-1.703-2.039-2.077-4.375-4.348-0.278-0.293-1.155-0.358-1.448-0.223-0.33 0.152-1.838 1.647-1.982 1.965-0.064 0.141-0.272 0.559 0.006 1.294 2.058 2.211 3.097 3.104 4.558 4.656 0.399 0.432 0.407 1.474 0.010 1.812-1.495 1.555-3.212 3.17-4.475 4.491-0.22 0.481-0.443 0.997-0.059 1.568 0.353 0.526 1.59 1.653 1.707 1.725 0.55 0.329 0.876 0.336 1.668-0.038l-0.001-0.002z"/></symbol><symbol viewBox="0 0 32 32" id="cloud-down"><title>cloud-down</title><path d="M18.45 4.966c0.050-0 0.101-0 0.151 0 5.029 0.049 9.876 4.176 9.513 10.076 6.015 2.617 4.753 11.47-2.14 11.992-0.725-0.004-4.638-0.003-8.951-0.003 1.86-2.15 3.685-4.346 5.496-6.537 0.225-0.235 0.267-0.622-0.002-0.841 0.022-0.224-3.231-0.079-4.524-0.162-0.010-1.981-0.020-3.961-0.031-5.942-1.885-0.003-3.315 0-3.899-0.008v5.98c-1.456 0.026-2.922-0.058-4.372 0.067-0.336 0.131-0.393 0.559-0.169 0.817 1.914 2.241 3.827 4.526 5.573 6.625-3.808 0-7.645-0-9.629-0.002-4.581-0.52-8.351-7.389-2.281-11.975-1.061-3.61 3.1-7.332 6.846-4.546 2.016-3.867 5.243-5.521 8.418-5.542z"/></symbol><symbol viewBox="0 0 32 32" id="cloud-up"><title>cloud-up</title><path d="M18.609 4.973c-3.221-0.031-6.517 1.613-8.564 5.539-3.744-2.784-7.902 0.936-6.842 4.543-6.066 4.583-2.359 11.383 2.219 11.902 2.833 0.014 5.666 0.027 8.499 0.042v-5.976c-1.455-0.026-2.92 0.058-4.369-0.067-0.335-0.131-0.393-0.559-0.169-0.817 2.029-2.376 4.064-4.809 5.893-7.009 0.459-0.321 1.19-0.238 1.493 0.26 1.897 2.189 3.757 4.428 5.603 6.661 0.225 0.235 0.267 0.622-0.002 0.84 0.022 0.224-3.229 0.079-4.521 0.162-0.010 1.98-0.020 3.958-0.031 5.938 2.72 0.005 5.441 0.039 8.159 0.037 6.889-0.522 8.15-9.37 2.139-11.985 0.363-5.896-4.482-10.021-9.507-10.070z"/></symbol><symbol viewBox="0 0 46 32" id="cloud"><title>cloud</title><path d="M14.512 8.046c-5.425-4.035-11.453 1.356-9.916 6.584-8.791 6.642-3.418 16.496 3.216 17.249 4.106 0.020 25.85 0.105 29.79 0.103 9.984-0.757 11.812-13.579 3.1-17.37 0.525-8.545-6.495-14.524-13.778-14.594-4.669-0.045-9.445 2.337-12.412 8.028z"/></symbol><symbol viewBox="0 0 24 32" id="fork"><title>fork</title><path d="M16.435 25.248c-0.012-1.177 0.135-2.885-0.069-3.863-0.342-1.439-1.334-2.482-2.323-3.648 1.095-1.052 2.227-2.099 3.111-2.925 1.473 1.568 2.612 3.182 3.181 4.842 0.534 1.359 0.388 3.027 0.424 5.593 1.139 0.003 2.246 0.013 3.362 0.034-1.942 2.3-3.655 4.342-5.626 6.654-1.643-2.010-2.878-3.345-5.623-6.691 1.254-0.008 2.212 0.004 3.563 0.004zM3.486 25.248c0.016-2.247-0.11-4.773 0.742-6.397 0.876-1.942 2.336-3.673 5.93-7.038 3.775-3.533 5.104-4.999 5.809-6.407 0.659-0.656 0.469-2.881 0.469-5.406h4.312c-0.040 1.963 0.13 4.391-0.379 6.006-1.027 3.098-3.978 5.835-6.433 8.139-3.661 3.423-5.008 4.916-5.722 6.344-0.61 1.939-0.402 2.589-0.402 4.759 1.117 0.023 2.286 0 3.393 0.039-1.646 2.053-3.941 4.651-5.575 6.648-1.873-2.233-3.603-4.285-5.63-6.648 1.234-0.021 2.164-0.039 3.486-0.039z"/></symbol><symbol viewBox="0 0 32 32" id="gear"><title>gear</title><path d="M17.866 0.003c0.476-0.015 0.908 0.352 1.009 0.809 0.199 1.059 0.792 4.287 0.896 4.839 0.036 0.235 0.301 0.885 1.198 0.105 1.208-0.818 2.423-1.629 3.628-2.45 0.455-0.365 1.164-0.277 1.534 0.169 0.833 0.839 1.673 1.669 2.507 2.506 0.371 0.359 0.409 0.996 0.107 1.408-0.888 1.306-1.768 2.617-2.655 3.924-0.11 0.16-0.405 0.836 0.35 0.941 1.588 0.293 3.175 0.585 4.762 0.878 0.425 0.087 0.75 0.462 0.828 0.882v4.072c-0.137 0.369-0.419 0.713-0.822 0.796-1.588 0.293-3.177 0.583-4.764 0.879-0.22 0.031-0.899 0.29-0.316 1.001 0.872 1.281 1.734 2.57 2.606 3.85 0.305 0.408 0.283 1.047-0.086 1.408-0.867 0.866-1.735 1.732-2.602 2.598-0.361 0.382-1.010 0.419-1.427 0.107-1.319-0.898-2.648-1.784-3.969-2.679-0.66-0.412-0.857 0.157-0.886 0.352-0.025 0.131-0.766 4.156-0.809 4.371-0.186 0.934-0.241 1.114-0.948 1.26h-3.994c-0.413-0.105-0.782-0.418-0.864-0.85-0.296-1.598-0.589-3.195-0.887-4.792-0.105-0.744-0.769-0.424-0.924-0.315-1.221 0.828-2.45 1.644-3.668 2.476-0.643 0.583-1.372 0.379-1.659 0.098-0.87-0.863-1.735-1.732-2.603-2.596-0.379-0.348-0.43-0.983-0.141-1.401 0.918-1.361 1.844-2.715 2.755-4.081 0.218-0.277 0.059-0.712-0.288-0.775-1.436-0.293-3.012-0.594-4.509-0.823-0.948-0.145-1.134-0.681-1.228-0.901v-4.058c0.084-0.439 0.428-0.82 0.876-0.895 1.438-0.257 3.149-0.612 4.588-0.868 0.55 0 0.891-0.395 0.55-0.832-0.839-1.247-1.684-2.491-2.525-3.737-0.5-0.74-0.579-1.211-0.097-1.702 0.817-0.833 1.653-1.647 2.475-2.475 0.181-0.185 0.815-0.753 1.567-0.202 1.305 0.89 2.619 1.765 3.926 2.652 0.155 0.099 0.754 0.413 0.901-0.31 0.071-0.379 0.615-3.327 0.819-4.422 0-0.957 0.738-1.228 1.083-1.223l3.703 0.001zM16.002 21.847c4.791 0 5.929-5.068 5.893-5.797-0.22-4.468-4.145-5.816-5.893-5.816-3.458 0-5.787 2.677-5.787 5.45 0 0.365-0.019 6.163 5.787 6.163v0z"/></symbol><symbol viewBox="0 0 32 32" id="github"><title>github</title><path d="M26.537 4.872c0.247-0.796 0.576-2.564-0.329-4.828 0 0-1.597-0.507-5.209 1.91-1.415-0.353-2.921-0.528-4.429-0.528-1.659 0-3.336 0.211-4.9 0.64-3.727-2.543-5.372-2.022-5.372-2.022-1.074 2.686-0.41 4.674-0.208 5.168-1.262 1.362-2.033 3.101-2.033 5.234 0 1.61 0.183 3.054 0.631 4.309l0.471 1.066c1.258 2.345 3.739 3.86 8.152 4.336-0.626 0.421-1.265 1.136-1.524 2.347-0.854 0.408-3.556 1.405-5.177-1.384 0 0-0.908-1.659-2.644-1.789 0 0-1.685-0.026-0.116 1.050 0 0 1.128 0.531 1.905 2.528 0 0 1.015 3.406 5.912 2.313v3.518c0 0-0.103 1.244-1.244 1.659 0 0-0.674 0.467 0.052 0.726 0 0 3.162 0.259 3.162-2.332v-3.836c0 0-0.125-1.521 0.622-2.050v6.3c0 0-0.052 1.503-0.829 2.073 0 0-0.519 0.933 0.622 0.674 0 0 2.177-0.311 2.281-2.851l0.049-6.376h0.523l0.050 6.376c0.104 2.54 2.281 2.851 2.281 2.851 1.14 0.259 0.622-0.674 0.622-0.674-0.778-0.57-0.829-2.073-0.829-2.073l0-6.246c0.747 0.582 0.622 1.996 0.622 1.996v3.836c0 2.592 3.162 2.332 3.162 2.332 0.725-0.259 0.052-0.725 0.052-0.725-1.141-0.415-1.244-1.659-1.244-1.659v-5.028c0-1.961-0.826-2.999-1.633-3.547 4.707-0.467 6.965-1.986 8.006-4.348l0.372-1.054c0.349-1.257 0.454-2.704 0.454-4.318 0-2.314-0.869-4.165-2.281-5.574zM16.533 19.29c-5.131 0-9.289-0.772-9.289-5.73 0-1.187 0.585-2.289 1.586-3.204 1.67-1.524 4.497-0.717 7.703-0.717 3.192-0.001 6.009-0.816 7.682 0.698l0.001 0.001c1.014 0.918 1.607 2.028 1.607 3.222 0 5.579-4.159 5.73-9.289 5.73zM11.511 11.062c-1.067 0-1.933 1.245-1.933 2.782s0.865 2.782 1.933 2.782 1.933-1.246 1.933-2.783c0-1.536-0.865-2.78-1.933-2.782zM21.881 11.062c-1.067 0-1.933 1.245-1.933 2.782s0.865 2.782 1.933 2.782c1.067 0 1.933-1.246 1.933-2.783s-0.865-2.78-1.933-2.782z"/></symbol><symbol viewBox="0 0 26 32" id="heart"><title>heart</title><path d="M0 9.344c0-1.813 0.646-3.365 1.938-4.656s2.854-1.938 4.688-1.938c1.406 0 2.669 0.393 3.789 1.18s1.925 1.81 2.414 3.070c0.469-1.26 1.268-2.284 2.398-3.070s2.393-1.18 3.789-1.18c1.833 0 3.393 0.646 4.68 1.938s1.93 2.844 1.93 4.656c0 0.167-0.026 0.422-0.078 0.766s-0.307 1.057-0.766 2.141-1.086 2.213-1.883 3.391-2.075 2.667-3.836 4.469-3.828 3.609-6.203 5.422l-0.031-0.031v0.031h-0.063c-2.365-1.813-4.427-3.62-6.188-5.422s-3.042-3.292-3.844-4.469-1.432-2.307-1.891-3.391-0.714-1.797-0.766-2.141-0.078-0.599-0.078-0.766z"/></symbol><symbol viewBox="0 0 29 32" id="power"><title>power</title><path d="M12.234 18.058c-0.143-0.552-0.146-15.686-0.003-16.235 0.711-2.554 3.886-2.26 4.562-0.137v16.432c-0.811 2.382-3.913 2.269-4.558-0.060h-0.001zM14.466 31.936c-13.862-0.249-19.184-16.735-9.626-25.291 2.756-2.052 5.498 1.638 2.963 3.722-6.755 6.849-1.505 16.858 6.617 16.841 10.087-0.476 12.337-11.764 6.793-16.754-2.562-1.906-0.017-5.863 2.836-3.834 10.416 9.925 2.818 25.382-9.583 25.317v-0.001z"/></symbol><symbol viewBox="0 0 27 32" id="reset"><title>reset</title><path d="M3.33 27.508c-1.936-2.166-3.381-5.351-3.329-8.701 0.067-4.314 1.653-6.897 3.793-9.246 3.525-3.4 6.866-3.892 10.234-3.91 0.050-1.883 0.047-3.767 0.047-5.651 3.257 3.307 5.323 5.308 8.602 8.662-0.017 0.049-8.55 8.603-8.582 8.603-0.029-2.107-0.019-3.714-0.019-5.984-5.589-0.421-8.606 4.006-8.492 7.455 0.12 5.749 4.897 7.577 7.576 7.648 5.732-0.6 7.845-4.94 7.555-8.682h5.538c0.299 7.209-4.28 10.736-4.509 10.985-3.684 3.018-7.428 3.491-9.979 3.155-2.015-0.096-5.743-1.321-8.435-4.334z"/></symbol><symbol viewBox="0 0 87 32" id="sassmeister"><title>sassmeister</title><title>SassMeister</title><path d="M26.261 3.304c0.862 1.615-0.038 4.78-1.043 6.087-1.807 2.348-3.123 3.729-6.609 4.696-6.32 1.753-8.365-0.895-8.696-1.478-0.257-0.453-0.207-0.945 0.087-0.87s1.085 1.217 2.957 1.478c1.871 0.261 6.008-0.757 8.435-2.783 4.044-3.375 2.834-5.814 2.696-6.174-0.383-0.998-2.737-2.176-6.522-1.566s-5.399 1.698-6.783 2.349c-6.696 3.151-7.913 7.304-7.739 8.435 0.24 1.562 0.89 2.87 2.268 3.827s4.431 3.736 4.427 3.739c0.022 0.007 3.415-1.85 4.081-2.174 0 0 1.381-1.739 2.615-2.348 2.323-0.965 2.892 0.435 2.696 2.348 0.016-0.022 0.531-0.38 0.999-0.102 0.651 0.387 0.043 1.667-0.058 2.013-0.077 0.261-0.593 2.098-0.68 2.944s-0.041 1.116 0 1.232c0.012 0.012 1.172-2.021 2.126-4.176 1.222-2.76 2.304-5.799 2.309-5.824 0.112-0.291 3.13-0.95 2.435 0.522-0.227 0.727-0.438 1.104-0.348 2.522s0.673 1.974 0.696 2c0.012-0.026 1.867-3.043 2.348-4.261 0.159-0.403 0.607-2.032 0.609-2.087 0.088-0.119 0.65-0.367 1.412-0.367s1.073 0.206 1.11 0.367c0.082 0.079-0.275 1.173-0.348 1.391-0.124 0.574-0.384 1.478 0.435 3.478 0.486-0.572 3.071-3.976 5.826-3.565 1.913 0.285 2.594 1.902 2.609 2 0.781 0.048 1.341 0.384 1.652 1.043 1.207-0.72 2.184-1.043 2.957-1.043 0.577 0 1.862 0.229 1.998 1.748s0.089 4.6 0.089 4.6h1.13c0.184 0 0.273 1.010-0.087 0.957h-3.304c-0.293 0-0.168-0.805 0-0.957s0.87 0 0.87-0.348c0 0 0.087-3.328-0.119-3.909s-0.476-0.873-1.098-0.873c-0.623 0-1.223 0.331-2 0.957v4.174h1.13c0.143 0 0.338 0.891-0.087 0.957h-3.304c-0.205 0-0.194-0.846 0-0.957s0.855-0.124 0.87-0.348c0 0 0.061-3.391-0.174-4s-0.522-0.783-1.043-0.783c-0.522 0-1.223 0.331-2 0.957v4.174h1.217c0.279 0 0.2 1.024-0.087 0.957h-3.652c-0.433 0-0.174-0.872-0.061-0.957 0.030-0.069 1.278 0 1.191-0.348v-4.783h-1.304c-0.798-0.739 0.174-1.217 0.957-1.217s1.357-0.087 1.478 0.087c0.121 0.174 0.087 0.783 0.087 0.783 0.742-0.388 1.401-0.664 2-0.783-0.224-0.427-0.873-1.043-2.261-1.043-1.214 0-2.348 0.295-4.957 3.391 0.133 0.334 0.934 1.438 0.678 2.944s-2.505 2.796-2.715 2.796c-0.21 0-1.219 0.672-1.877 0s-0.041-2.030 0.111-2.336c0.151-0.306 1.877-2.874 1.889-2.882-0.39-0.522-0.905-2.563-1.043-3.043 0.010 0.002-0.581 1.169-1.217 2.261-0.632 1.084-1.309 2.095-1.304 2.087-0.009 0.036 0.685 1.565 0.348 2.87-0.426 1.391-1.999 2.419-3.826 2.696s-1.517-0.85-1.391-1.043c0.077-0.233 0.554-0.778 1.577-2.015 1.293-1.563 1.423-1.847 1.38-1.898 0.043 0.019-0.109-0.232-0.261-0.522-0.603-1.15-0.942-2.867-1.043-3.13 0.020-0.024-2.555 6.032-3.565 7.565-1.237 1.877-1.534 1.863-2.375 1.545s-0.508-3.296-0.495-3.284c-0.044-0.008-0.164 0.24-0.174 0.261-1.359 3.13-1.648 3.773-2.981 3.72s-2.121-2.85-1.975-4.676c0.089-1.12 0.538-2.57 0.522-2.609-0.032 0.039-2.417 1.416-2.435 1.391 0.011 0.043 0.063 0.105 0.087 0.174 1.188 3.408-0.087 5.81-1.158 7.117-1.506 1.837-3.924 2.535-4.755 2.535s-1.89-0.106-2.682-0.795c-0.793-0.689-0.789-2.139-0.709-2.77 0.114-0.569 0.584-2.501 3.217-4.261 0.924-0.617 3.706-2.186 3.739-2.174-0.033-0.046-0.054-0.071-0.087-0.087-0.145-0.139-0.406-0.346-0.609-0.522-0.396-0.273-4.135-2.928-4.957-3.652-5.599-4.935-2.149-10.831 8.696-15.826 2.449-1.128 11.917-4.22 14.957 1.478zM7.826 23.565c-2.623 1.863-4.001 2.786-4.001 5.185 0 0.961 1.784 1.773 4.001-0.698 2.426-2.704 1.355-5.266 1.304-5.27 0.016-0.003-0.993 0.561-1.304 0.783zM24.711 24.444c-0.275 0.306-0.888 1.009-0.885 1.034 0.056 0.003 0.18 0.082 0.609-0.174 0.479-0.286 1.1-0.901 1.391-1.391 0.116-0.31 0.185-0.603 0.174-0.957-0.041 0-0.95 1.11-1.289 1.488zM30.464 22.408c-0.787 1.13-0.641 1.712-0.543 1.758s1.866-0.671 1.76-2.422c-0.011-0.177-0.156-0.614-0.202-0.614-0 0-0.228 0.148-1.015 1.278zM15.13 20.522c-0.373 0.818-0.659 1.787-0.609 3.652 0.019 0.694 0.247 1.101 0.435 1.217 0.635 0.394 2.844-5.698 3.015-6.916 0.11-0.782-0.148-0.738-0.32-0.737-0.136-0.002-1.254 0-2.522 2.783zM49.391 20.609c0.005-1.152 0.546-3.573 3.565-3.652 0.878 0 2.782 0.3 2.783 3.217 0 0.255-0.221 0.817-1.043 0.87h-3.826c0.080 1.1 0.532 2.348 1.826 2.261s2.123-0.798 2.348-0.87c0.225-0.071 0.828 0.48 0.522 0.957-0.879 0.703-1.851 1.043-2.957 1.043-2.782 0-3.222-2.651-3.217-3.826zM54.261 20c0.005-1.275-0.463-1.913-1.391-1.913-1.507 0-1.966 1.309-2 1.913h3.391zM57.652 14.174c0-1.263 2.063-1.444 1.971 0s-1.971 1.067-1.971 0zM56.783 18.174c-0.434-0.061-0.248-0.889-0.087-0.957 0.446-0.162 1.259-0.251 2.435-0.261 0.232 0 0.338 0.205 0.348 0.609v5.739h1.217c0.27 0.136 0.138 0.85 0.087 0.957-0.092 0.048-0.155 0.087-0.174 0.087h-3.652c-0.261-0.087-0.261-0.472-0.174-0.727s0.348-0.316 0.348-0.316c0.957 0.053 0.953-0.231 0.957-0.261v-4.87h-1.304zM64.348 23.304c1.478-0.106 1.478-0.842 1.478-0.957 0.001-1.004-1.828-1.129-2.783-1.565s-1.391-1.027-1.391-1.826c0-0.783 0.435-1.849 2.609-2 0.816-0.057 2.766 0.223 2.783 1.478-0.093 0.868-0.723 0.959-1.043 0.957-1.165-0.139-0.937-1.135-0.87-1.391h-0.783c-0.77 0-1.032 0.143-1.304 0.797-0.166 1.010 1.283 1.091 2.141 1.441 0.519 0.211 1.946 0.643 1.946 2.111s-1.304 2.087-2.609 2.087c-1.304 0-1.351-0.084-1.826-0.261-1.86-0.694-1.131-2.232-0.174-2.174s1.038 0.647 1.043 0.87c-0.005 0.242-0.017 0.392 0 0.435h0.783zM67.913 18.174c0-0.724 0.088-1.093 0.261-1.13 0 0 1.217 0.085 1.217-0.261l0.348-1.565c0.059-0.303 0.369-0.435 0.957-0.435v2.261h1.913c0.262 0 0.265 1.13-0.174 1.13h-1.739v4.261c-0.024 0.543 0.082 0.696 0.435 0.783s0.87-0.174 1.13-0.174c0.261 0 0.578 0.622 0.261 0.87-0.631 0.358-1.219 0.522-1.739 0.522-1.018 0-1.508-0.665-1.478-2v-4.261h-1.391zM86.261 17.043c0.838 0.342 0.89 1.734-0.092 1.952s-1.203-0.646-1.212-0.908c-0.733 0.405-1.304 1.478-1.304 1.478v3.739h1.739c0.184-0.062 0.348 0.982-0.087 1.043h-4.261c-0.297-0.087-0.174-0.994 0.123-0.994 0.991 0 1.094-0.142 1.094-0.311v-4.783h-1.304c-0.419-0.095-0.248-1.043-0.087-1.043 0.268-0.085 2.609-0.503 2.609-0.096s-0.006 0.945 0 0.965c0.831-0.74 1.945-1.386 2.783-1.043zM73.565 20.609c0.005-1.152 0.546-3.573 3.565-3.652 0.878 0 2.782 0.3 2.783 3.217 0 0.255-0.221 0.817-1.043 0.87h-3.826c0.080 1.1 0.532 2.348 1.826 2.261s2.123-0.798 2.348-0.87c0.225-0.071 0.828 0.48 0.522 0.957-0.879 0.703-1.851 1.043-2.957 1.043-2.782 0-3.222-2.651-3.217-3.826zM78.435 20c0.005-1.275-0.463-1.913-1.391-1.913-1.507 0-1.966 1.309-2 1.913h3.391z"/></symbol><symbol viewBox="0 0 32 32" id="share"><title>share</title><path d="M30.404 15.804l-13.378-9.004v5.416c0 0-15.426 1.184-15.426 12.594 0 0 1.951-4.682 9.415-5.57 1.221-0.145 3.076-0.288 6.016-0.288v5.857l13.373-9.004z"/></symbol><symbol viewBox="0 0 32 32" id="twitter"><title>twitter</title><path d="M32 6.076c-1.177 0.522-2.443 0.875-3.771 1.034 1.355-0.813 2.396-2.099 2.887-3.632-1.269 0.752-2.674 1.299-4.169 1.593-1.198-1.276-2.904-2.073-4.792-2.073-3.626 0-6.565 2.939-6.565 6.565 0 0.515 0.058 1.016 0.17 1.496-5.456-0.274-10.294-2.888-13.532-6.86-0.565 0.97-0.889 2.097-0.889 3.301 0 2.278 1.159 4.287 2.921 5.465-1.076-0.034-2.088-0.329-2.974-0.821-0.001 0.027-0.001 0.055-0.001 0.083 0 3.181 2.263 5.834 5.266 6.438-0.551 0.15-1.131 0.23-1.73 0.23-0.423 0-0.834-0.041-1.235-0.118 0.836 2.608 3.26 4.506 6.133 4.559-2.247 1.761-5.078 2.81-8.154 2.81-0.53 0-1.052-0.031-1.566-0.092 2.905 1.863 6.356 2.95 10.064 2.95 12.076 0 18.679-10.004 18.679-18.68 0-0.285-0.006-0.568-0.019-0.849 1.283-0.926 2.396-2.082 3.276-3.398z"/></symbol></svg>