<svg version="1.1" xmlns="http://www.w3.org/2000/svg" xmlns:xlink="http://www.w3.org/1999/xlink" width="149" height="32" viewBox="0 0 149 32">
	<title>thank you.</title>
	<path d="M0.41 11.34c0-1.561 0.187-2.341 0.563-2.341 0 0 2.66 0.159 2.66-0.654l0.654-3.36c0.122-0.557 0.78-0.836 1.976-0.836v4.85h4.105c0.481 0 0.529 1.926-0.304 2.341h-3.801v8.97c0.144 1.109-0.205 2.443 3.375 1.353 0.517 0 1.238 1.182 0.517 1.824-5.644 2.699-6.856-0.37-6.856-3.177v-8.97h-2.889zM11.63 2.796c-0.846-0.227-0.725-1.964-0.213-2.083 0.902-0.355 2.625-0.542 5.169-0.563 0.426 0 0.684 0.563 0.684 2.083v8.133c1.307-0.75 2.62-1.267 3.938-1.551 6.090-0.747 5.656 3.574 5.807 5.625v7.632h2.372c0.573 0.243 0.628 1.9-0.228 2.144h-6.902c-0.461 0.213-0.619-1.9 0.213-2.144 1.054 0 1.581-0.218 1.581-0.654v-4.515c0.286-5.66-2.012-6.767-6.78-3.649v8.818h2.554c0.345 0 0.584 1.885-0.228 2.144h-7.753c-0.606 0-0.582-1.968 0.164-2.144 1.879-0.121 2.299-0.001 2.299-0.654v-18.623h-2.676zM35.848 10.838c0.122 0.264 0.775 2.652-1.9 3.025-2.076 0.475-4.776-5.169 4.242-5.169 4.819 0.148 5.154 3.867 5.154 5.519v7.86h2.554c0.433 0.162 0.566 1.786-0.213 2.144-1.37 0.385-3.901 0.226-4.211 0.19s-0.72-0.712-0.912-1.239c-1.313 1.239-8.818 3.235-9.41-2.919-0.382-3.97 3.973-4.834 5.473-4.834h3.755c0-1.693 0.126-1.377-0.418-3.276s-4.112-1.3-4.112-1.3zM36.639 22.179c1.277 0 2.524-0.507 3.74-1.52v-2.965h-3.101c-0.963 0-1.632 0.137-2.007 0.41-0.699 0.486-1.049 1.049-1.049 1.688 0 1.196 0.497 1.946 1.49 2.25 0.294 0.091 0.603 0.137 0.927 0.137zM47.128 11.34c-0.784 0-0.695-1.925-0.228-2.052 2.046-0.669 4.992-0.706 5.321-0.388 0.228 0.121 0.228 1.695 0.228 1.695 1.53-0.851 6.318-3.568 9.091-0.334 0.7 0.865 0.973 2.311 0.973 4.257v7.556h2.356c0.473 0 0.612 2.144-0.213 2.144h-6.917c-0.806-0.472-0.317-2.021 0.228-2.144 1.054 0 1.581-0.218 1.581-0.654 0 0 0.233-6.44-0.334-8.384-1.083-3.128-4.531-1.357-6.446 0.266v8.772h2.554c0.462 0 0.575 2.144-0.228 2.144h-7.753c-0.578 0-0.441-1.893 0.182-2.144 0 0 2.28 0.17 2.28-0.654v-10.079h-2.676zM66.117 2.796c-0.681-0.114-0.758-1.91-0.213-2.083 0.902-0.355 2.625-0.542 5.169-0.563 0.426 0 0.684 0.358 0.684 2.083v19.84h1.596c0.483 0 0.519 1.998-0.213 2.144h-6.811c-0.426 0-0.663-1.739 0.202-2.144 0.882 0 2.018-0.117 2.17-0.35 0.061-0.081 0.091-0.182 0.091-0.304v-18.623h-2.676zM82.931 24.216h-3.968l-7.024-9.122 6.127-6.096h3.223c0.716 0 0.897 2.144 0.213 2.144-0.983 0-1.865 0-2.782 0.684l-3.329 3.375 5.321 5.853c0.628 0.679 1.439 1.019 2.432 1.019 0.401 0.158 0.587 1.827-0.213 2.144zM95.488 28.564c0.126 0 0.669 0 1.288-1.398 0.567-1.233 1.111-2.985 1.13-3.041l-5.047-12.983h-1.703c-0.264 0-0.395-0.276-0.395-0.829s0.071-0.91 0.213-1.072c0.142-0.162 0.269-0.243 0.38-0.243h6.598c0.426 0 0.55 1.896-0.243 2.144-0.868 0.271-1.338 0.218-1.338 0.654l3.086 9.030 3.603-9.684h-1.992c-0.429 0-0.631-1.772 0.152-2.144h5.701c0.463 0 0.554 2.144-0.35 2.144-0.953 0-1.14 0.41-1.231 0.654l-6.416 16.373c-1.216 2.507-3.183 2.735-4.272 2.736-3.090-0.002-3.281-2.194-3.276-2.752-0.005-2.415 3.866-3.062 4.112 0.41zM108.578 16.349c0-2.438 1.056-7.436 7.601-7.655 1.604-0.054 6.4 0.857 6.568 8.057 0.051 2.166-1.105 7.891-7.404 7.769-5.689 0.122-6.765-5.734-6.765-8.171zM111.694 16.372c0 1.916 0.416 5.807 4.044 5.807 3.465 0 3.892-4.014 3.892-5.655-0.010-2.747-0.625-5.28-3.907-5.488 0 0-4.148-0.436-4.029 5.336zM127.003 19.078v-7.738h-2.144c-0.826 0-0.461-1.941-0.258-1.992 1.703-0.436 3.258-0.654 4.667-0.654 0.446 0 0.679 0.405 0.699 1.216v8.057c0 1.976 0.507 3.157 1.52 3.542 3.156 0.563 5.002-1.307 5.002-1.307v-8.863h-2.083c-0.924 0-0.476-1.89-0.213-1.992 0.426-0.172 4.184-0.957 4.926-0.486 0.223 0.182 0.334 0.77 0.334 1.764v11.448h2.554c0.274 0 0.759 1.913-0.213 2.144-1.624 0.365-4.054 0.203-4.196 0.122-0.304-0.172-0.618-0.699-0.943-1.581-1.346 1.459-9.121 4.423-9.654-3.679zM145.627 20.507c0.263-0.101 1.532-0.357 2.303 0.456s1.011 2.54-0.646 3.405c-1.143 0.597-2.109-0.233-2.341-0.426-0.449-0.374-1.397-2.329 0.684-3.436z"/>
</svg>
